<?xml version="1.0" encoding="UTF-8" standalone="no"?>
<svg xmlns:xlink="http://www.w3.org/1999/xlink" height="27.2px" width="121.9px" xmlns="http://www.w3.org/2000/svg">
  <g transform="matrix(1.0, 0.0, 0.0, 1.0, 0.75, 26.4)">
    <path d="M7.7 -23.25 L8.0 -23.15 8.5 -23.5 18.5 -24.2 24.45 -23.95 27.7 -24.1 39.4 -23.35 48.45 -23.2 48.65 -23.2 Q54.35 -23.1 60.05 -23.5 L69.25 -23.8 78.45 -24.05 Q79.65 -24.25 94.8 -23.85 L111.1 -23.25 111.55 -23.25 Q111.55 -17.95 112.05 -13.0 L112.55 -7.2 Q112.65 -5.95 112.9 -4.95 112.65 -5.95 112.55 -7.2 L112.05 -13.0 Q111.55 -17.95 111.55 -23.25 111.5 -23.85 111.9 -24.45 112.25 -24.95 112.75 -24.95 L113.75 -23.9 114.6 -25.4 119.3 -25.6 119.6 -24.3 119.6 -24.1 120.05 -16.95 120.0 -16.85 120.05 -16.85 119.9 -13.4 120.35 -5.35 Q118.9 -3.6 116.65 -3.6 114.45 -3.35 113.4 -5.1 L112.9 -4.95 112.95 -4.85 111.95 -4.3 Q110.25 -4.1 93.5 -4.2 L75.05 -4.3 Q73.75 -4.2 67.65 -4.4 L60.3 -4.5 48.85 -3.8 48.65 -3.8 38.0 -3.85 27.6 -4.2 Q22.05 -4.55 16.45 -4.1 13.25 -4.15 10.65 -2.65 10.4 -4.6 8.35 -5.0 L6.5 -5.35 Q4.45 -5.5 3.15 -3.8 L2.55 -2.55 3.15 -3.8 Q4.45 -5.5 6.5 -5.35 L8.35 -5.0 Q10.4 -4.6 10.65 -2.65 L10.2 -1.95 9.1 -2.25 8.7 -1.45 Q7.5 0.15 5.5 0.0 3.15 -0.3 2.55 -2.55 L1.65 -2.55 1.05 -9.7 3.05 -11.7 1.05 -9.7 0.2 -18.0 0.05 -20.9 0.25 -21.7 Q1.25 -23.15 3.05 -23.4 L7.7 -23.25 9.25 -12.5 9.7 -6.85 Q9.7 -5.55 10.5 -4.55 9.7 -5.55 9.7 -6.85 L9.25 -12.5 7.7 -23.25 M1.35 -14.0 L2.75 -16.35 1.35 -14.0 M2.75 -20.9 L0.2 -18.0 2.75 -20.9 M5.9 -2.55 Q6.25 -2.9 6.65 -3.05 8.35 -3.95 9.1 -2.25 8.35 -3.95 6.65 -3.05 6.25 -2.9 5.9 -2.55 M113.75 -23.9 L113.6 -22.65 Q115.1 -21.6 117.0 -22.15 118.15 -22.35 119.1 -23.25 L119.6 -24.1 119.1 -23.25 Q118.15 -22.35 117.0 -22.15 115.1 -21.6 113.6 -22.65 L113.75 -23.9 116.55 -24.3 113.75 -23.9 M117.7 -15.2 L120.0 -16.85 117.7 -15.2 M117.7 -11.45 L119.9 -13.4 117.7 -11.45 M117.4 -8.0 L119.1 -9.75 117.4 -8.0 M117.4 -17.5 L118.95 -19.15 117.4 -17.5" fill="#d8c49b" fill-rule="evenodd" stroke="none"/>
    <path d="M8.0 -23.15 L7.7 -23.25 9.25 -12.5 9.7 -6.85 Q9.7 -5.55 10.5 -4.55 M7.7 -23.25 L3.05 -23.4 Q1.25 -23.15 0.25 -21.7 L0.05 -20.9 0.2 -18.0 2.75 -20.9 M2.75 -16.35 L1.35 -14.0 M3.05 -11.7 L1.05 -9.7 1.65 -2.55 M2.55 -2.55 L3.15 -3.8 Q4.45 -5.5 6.5 -5.35 L8.35 -5.0 Q10.4 -4.6 10.65 -2.65 13.25 -4.15 16.45 -4.1 22.05 -4.55 27.6 -4.2 L38.0 -3.85 48.65 -3.8 48.85 -3.8 60.3 -4.5 67.65 -4.4 Q73.75 -4.2 75.05 -4.3 L93.5 -4.2 Q110.25 -4.1 111.95 -4.3 M112.95 -4.85 L112.9 -4.95 Q112.65 -5.95 112.55 -7.2 L112.05 -13.0 Q111.55 -17.95 111.55 -23.25 111.5 -23.85 111.9 -24.45 112.25 -24.95 112.75 -24.95 L114.6 -25.4 119.3 -25.6 119.6 -24.3 119.6 -24.1 120.05 -16.95 120.05 -16.85 119.9 -13.4 120.35 -5.35 Q118.9 -3.6 116.65 -3.6 114.45 -3.35 113.4 -5.1 M111.1 -23.25 L94.8 -23.85 Q79.65 -24.25 78.45 -24.05 L69.25 -23.8 60.05 -23.5 Q54.35 -23.1 48.65 -23.2 L48.45 -23.2 39.4 -23.35 27.7 -24.1 24.45 -23.95 18.5 -24.2 8.5 -23.5 M2.55 -2.55 Q3.15 -0.3 5.5 0.0 7.5 0.15 8.7 -1.45 L9.1 -2.25 Q8.35 -3.95 6.65 -3.05 6.25 -2.9 5.9 -2.55 M10.2 -1.95 L10.65 -2.65 M0.2 -18.0 L1.05 -9.7 M113.75 -23.9 L116.55 -24.3 M119.6 -24.1 L119.1 -23.25 Q118.15 -22.35 117.0 -22.15 115.1 -21.6 113.6 -22.65 L113.75 -23.9 M120.0 -16.85 L117.7 -15.2 M120.0 -16.85 L120.05 -16.95 M118.95 -19.15 L117.4 -17.5 M119.1 -9.75 L117.4 -8.0 M119.9 -13.4 L117.7 -11.45" fill="none" stroke="#5a4d36" stroke-linecap="round" stroke-linejoin="round" stroke-width="1.6"/>
  </g>
</svg>
