<?xml version="1.0" encoding="UTF-8" standalone="no"?>
<svg xmlns:xlink="http://www.w3.org/1999/xlink" height="41.4px" width="188.75px" xmlns="http://www.w3.org/2000/svg">
  <g transform="matrix(1.0, 0.0, 0.0, 1.0, -474.95, -438.65)">
    <path d="M654.6 438.95 Q659.1 437.85 658.8 440.5 658.65 441.45 655.75 441.9 L654.95 442.05 656.45 446.55 658.4 451.65 Q659.55 454.8 659.5 456.55 L663.5 456.8 663.6 457.1 663.65 457.95 Q663.55 458.7 662.2 459.3 L658.9 459.75 658.55 459.7 658.45 459.8 Q657.85 460.45 657.1 460.35 L647.55 453.1 644.65 450.75 645.05 452.15 Q647.75 461.2 647.6 462.2 647.5 463.3 647.35 462.8 L647.3 463.1 646.55 463.1 646.05 462.95 Q645.55 463.45 644.55 463.65 L638.85 464.55 Q637.45 463.55 637.5 463.25 637.65 461.95 640.3 461.15 639.4 459.15 638.05 454.25 L636.05 446.25 635.0 446.35 633.7 446.0 633.55 445.85 633.55 444.95 Q634.0 441.15 639.35 443.25 643.1 444.8 646.1 447.35 L652.9 452.3 655.0 454.05 652.5 448.85 Q648.6 440.7 648.05 442.1 648.45 440.9 650.6 440.2 651.65 439.65 654.6 438.95 M606.7 456.05 L606.8 456.4 606.85 457.25 Q606.75 458.25 604.85 458.95 L600.6 459.6 600.85 460.9 Q601.65 465.15 601.7 467.65 605.2 467.7 604.95 469.45 604.8 470.6 601.5 471.6 597.95 472.65 594.55 472.25 591.8 471.9 592.0 470.2 592.1 469.35 593.85 468.75 593.1 466.45 592.2 462.0 591.05 456.5 590.9 453.95 L588.5 453.85 Q587.7 453.75 587.4 451.95 587.15 450.65 587.25 450.05 587.4 448.75 588.35 447.85 589.5 446.75 591.15 446.95 591.7 447.05 592.45 447.65 593.2 448.25 593.8 448.3 L606.2 447.65 608.15 447.85 Q608.55 448.35 608.25 450.7 608.1 452.05 607.55 452.15 L605.75 451.85 Q601.8 450.65 597.3 451.85 598.65 453.25 599.7 456.1 L606.7 456.05 M594.9 456.5 L597.0 456.15 596.15 452.15 593.8 453.0 594.4 454.7 594.9 456.5 M590.35 469.15 Q590.8 470.65 590.85 472.25 590.7 473.6 582.05 474.35 L570.4 474.75 Q568.95 474.55 567.65 463.65 L566.9 454.4 563.6 454.1 Q560.45 453.75 560.65 451.95 560.85 450.55 568.55 450.2 576.15 449.8 575.85 452.15 575.7 453.5 572.85 454.05 573.75 456.75 574.8 462.25 576.35 469.9 576.15 471.3 L576.15 471.4 587.55 471.05 584.45 467.4 Q584.35 465.55 587.5 465.95 589.4 466.2 590.35 469.15 M596.55 468.2 L598.7 467.85 599.4 467.75 Q598.65 464.95 597.6 459.4 L597.2 459.35 595.6 459.1 Q596.75 464.25 596.55 468.2 M569.35 454.45 Q570.55 456.8 570.75 460.3 L571.45 471.35 571.2 471.45 571.75 471.55 574.6 471.5 Q573.5 468.05 571.45 454.3 L569.35 454.45 M640.35 447.75 Q643.95 455.1 643.4 459.55 L643.2 460.5 644.3 460.4 Q643.75 458.8 643.35 456.3 L642.6 449.15 640.05 447.2 640.35 447.75 M631.85 465.95 L626.55 466.45 625.7 466.2 625.3 465.8 Q625.15 465.55 625.25 464.5 625.4 463.25 628.55 462.55 L624.8 456.85 624.2 455.95 622.85 456.15 621.75 459.75 Q620.25 464.15 619.85 466.05 L619.35 466.2 Q620.05 466.7 619.95 467.65 619.75 469.3 610.75 469.8 L609.55 469.4 609.45 469.25 609.45 468.45 Q609.6 467.2 612.3 466.4 L612.3 465.5 Q613.6 455.05 616.7 448.75 L614.2 448.95 Q613.0 448.8 612.8 448.1 L612.8 447.2 Q613.0 445.7 619.75 444.8 626.45 443.85 626.15 446.35 626.1 446.95 624.4 447.5 L626.55 450.5 Q628.65 453.6 630.45 457.75 631.7 460.7 631.95 462.0 635.8 461.75 635.55 463.8 635.4 465.05 631.85 465.95 M619.95 448.35 L619.6 448.4 619.3 451.8 619.05 453.5 621.55 453.4 621.85 452.5 Q619.75 449.55 619.65 450.05 L619.95 448.35 M620.5 456.4 L618.6 456.45 617.9 460.15 Q617.05 463.9 616.1 465.75 L617.95 465.75 Q618.25 463.1 620.05 457.65 L620.5 456.4 M517.4 456.05 L518.1 462.8 518.15 463.7 523.4 461.3 Q529.55 458.65 529.9 455.9 530.1 454.0 527.5 451.85 523.55 448.45 514.7 447.4 L514.65 447.4 515.6 449.15 Q516.4 450.35 516.85 452.4 L517.4 456.05 M510.05 446.9 L505.6 446.7 Q506.75 449.8 507.95 456.95 509.45 465.65 509.1 468.85 L508.0 472.3 Q506.9 475.0 506.35 475.5 505.95 475.0 506.25 471.5 L506.8 467.1 Q507.35 462.8 506.15 453.85 L505.05 446.65 Q494.8 446.45 487.3 448.7 478.15 451.6 477.6 456.0 477.35 458.1 478.95 460.1 481.5 463.15 487.85 463.9 491.95 464.4 495.05 462.15 497.35 460.4 497.55 458.75 497.6 458.2 497.1 457.65 496.55 457.15 495.7 457.05 L490.8 457.35 490.15 457.1 490.05 456.2 Q490.25 454.65 494.15 455.15 498.05 455.6 499.2 457.15 499.75 458.0 499.55 458.85 499.15 461.95 495.85 463.95 491.7 466.6 484.85 465.75 478.45 465.0 476.15 460.45 474.75 457.9 475.0 455.65 475.7 450.1 483.6 446.9 493.4 442.9 512.0 443.95 527.2 447.05 531.25 450.45 533.45 452.2 532.95 456.2 532.65 458.6 531.35 460.3 529.75 462.2 526.35 463.6 532.2 467.4 533.45 468.85 534.7 470.4 534.4 473.0 533.95 476.6 528.5 478.45 519.95 481.35 500.6 479.0 494.4 478.25 493.4 477.65 493.25 476.9 492.7 476.25 493.5 475.0 499.65 475.35 L510.4 476.2 510.45 475.7 512.55 468.5 Q512.8 466.45 511.1 457.0 509.45 447.6 509.35 448.55 509.45 447.5 510.05 446.9 M518.35 469.2 L516.6 474.65 515.75 476.65 Q530.85 477.3 531.45 472.35 531.8 469.5 524.5 467.05 519.9 465.5 518.2 464.75 L518.35 469.2 M558.5 457.8 L558.3 458.1 557.3 458.25 Q556.75 458.2 556.05 456.8 L555.25 454.9 545.2 455.65 Q546.15 457.75 546.7 461.2 L548.1 461.15 Q555.3 460.95 554.95 463.75 554.8 465.2 551.5 465.85 L547.3 466.15 548.05 472.35 547.85 473.9 555.2 474.15 Q555.6 471.05 557.35 469.6 559.05 468.1 558.5 472.7 558.1 476.05 554.4 476.9 549.9 478.0 537.8 476.55 L537.1 476.0 536.5 475.15 Q537.15 474.15 540.0 473.85 539.45 471.4 539.45 466.05 L539.75 456.3 539.8 455.95 Q538.7 456.25 538.6 456.95 L538.25 457.95 538.2 458.15 537.3 458.25 Q536.15 458.15 536.0 456.25 535.85 455.35 536.0 454.25 536.05 453.6 539.8 452.55 543.8 451.35 547.95 451.05 559.6 450.1 558.75 456.9 L558.65 457.5 558.5 457.8 M541.7 455.7 L542.2 461.8 544.45 461.4 543.65 455.7 542.25 455.65 541.7 455.7 M543.75 465.85 L542.45 465.6 542.6 473.8 543.9 473.8 546.55 473.9 Q545.85 471.05 545.1 466.0 L543.75 465.85" fill="#5a4d36" fill-rule="evenodd" stroke="none"/>
  </g>
</svg>
