<?xml version="1.0" encoding="UTF-8" standalone="no"?>
<svg xmlns:xlink="http://www.w3.org/1999/xlink" height="11.75px" width="49.05px" xmlns="http://www.w3.org/2000/svg">
  <g transform="matrix(1.0, 0.0, 0.0, 1.0, 82.3, -7.95)">
    <path d="M-38.0 12.2 Q-38.35 10.95 -39.95 11.5 L-40.25 11.85 Q-41.1 13.65 -38.9 14.1 -38.0 14.25 -37.7 13.35 L-37.5 12.5 Q-36.3 14.65 -33.75 14.85 M-51.75 12.1 L-51.55 14.25 Q-51.5 12.55 -49.9 12.0 L-49.2 12.1 Q-47.65 12.95 -47.05 14.7 -46.95 15.1 -46.35 15.15 L-44.95 14.9 M-44.25 10.05 Q-43.7 10.2 -43.35 9.8 L-42.8 9.5 M-51.55 14.25 L-51.5 14.7 -51.5 15.0 -51.55 14.25 M-53.4 13.8 Q-53.35 13.5 -53.6 13.35 L-54.35 13.1 -55.75 12.9 Q-56.95 12.6 -57.45 13.75 L-57.55 14.25 Q-57.4 16.15 -55.55 15.95 -53.45 15.75 -53.4 13.8 M-64.35 12.9 Q-64.55 12.4 -64.55 13.2 L-64.35 14.35 -64.15 15.6 -64.15 15.25 -64.0 13.55 -63.75 12.95 Q-60.9 12.95 -59.55 15.5 L-58.45 16.85 M-43.15 11.8 L-43.1 14.4 M-72.6 11.0 Q-72.5 9.45 -73.85 8.7 L-75.4 8.5 Q-78.3 8.85 -80.35 10.75 -81.05 11.4 -81.4 12.3 -82.3 14.6 -81.25 16.9 -80.65 18.1 -79.45 18.7 -78.0 19.45 -76.5 19.05 -74.85 18.7 -73.4 17.55 L-71.3 15.9 M-64.15 16.1 L-64.15 15.6 M-64.75 16.9 Q-67.25 16.1 -67.25 13.75 L-67.3 13.85 -67.55 14.3 -68.05 15.65 Q-68.3 16.15 -68.85 16.25 L-69.75 16.05 Q-70.95 15.0 -70.1 13.65 -69.65 12.85 -68.75 13.2 L-67.8 13.55 Q-67.35 13.65 -67.3 13.85" fill="none" stroke="#5a4d36" stroke-linecap="round" stroke-linejoin="round" stroke-width="1.0"/>
  </g>
</svg>
