<?xml version="1.0" encoding="UTF-8" standalone="no"?>
<svg xmlns:xlink="http://www.w3.org/1999/xlink" height="9.65px" width="60.75px" xmlns="http://www.w3.org/2000/svg">
  <g transform="matrix(1.0, 0.0, 0.0, 1.0, 90.1, -9.9)">
    <path d="M-29.85 12.65 Q-30.0 12.1 -31.0 12.45 -31.55 12.7 -31.7 13.1 -31.85 13.7 -31.4 14.3 L-30.2 15.6 -29.85 16.1 -30.7 16.4 M-35.3 14.65 Q-36.3 14.15 -36.6 15.35 -36.85 16.25 -36.55 17.2 L-36.15 18.1 Q-34.0 16.7 -34.9 14.05 -35.4 12.55 -35.3 10.95 -34.9 12.95 -33.85 14.8 L-32.7 16.1 M-39.85 14.4 Q-41.2 15.0 -40.35 16.6 -39.85 17.6 -38.75 17.55 -38.1 16.95 -38.65 16.05 L-39.4 14.7 M-51.05 10.95 Q-51.7 11.85 -51.15 13.6 L-50.75 15.25 -49.9 17.8 Q-47.75 15.65 -48.15 12.1 L-47.7 13.0 -46.6 15.75 -46.15 16.4 Q-45.2 14.25 -45.65 11.8 L-45.9 10.95 M-55.6 16.1 L-56.05 15.95 -57.0 14.6 -57.3 14.1 -57.55 13.8 -57.6 13.8 Q-57.8 15.15 -58.85 16.0 L-59.55 16.2 Q-60.8 16.0 -60.45 14.65 -60.2 13.8 -59.4 13.4 -58.2 12.85 -57.55 13.8 M-43.9 14.65 Q-44.7 16.9 -42.5 16.7 -42.0 16.7 -41.95 16.05 -41.85 15.25 -42.4 14.6 -42.7 14.25 -43.4 14.2 -43.65 13.9 -43.9 14.65 M-62.75 10.95 L-62.75 10.65 M-71.65 15.05 L-71.65 16.1 Q-71.4 17.25 -70.5 17.2 L-68.65 16.65 Q-68.35 16.55 -68.45 16.15 -68.6 15.55 -69.2 15.2 -69.9 14.8 -70.8 14.7 L-71.1 14.65 -71.45 14.6 -71.65 15.05 M-71.45 14.6 Q-71.25 14.15 -71.1 14.65 M-76.2 17.55 Q-76.65 16.0 -76.1 14.7 -75.5 13.25 -74.45 14.35 -73.9 14.85 -73.75 15.55 L-73.0 17.5 M-79.4 15.95 L-79.95 16.95 Q-80.35 17.65 -81.1 17.5 L-81.8 17.1 Q-83.15 15.5 -81.1 14.95 -79.7 14.6 -79.4 15.95 L-79.35 15.8 -78.5 16.65 -77.9 17.15 -77.35 17.25 M-66.2 17.25 Q-67.0 16.35 -66.5 14.75 -66.2 13.95 -65.5 13.55 L-64.8 13.65 Q-63.8 14.3 -63.7 15.55 L-63.65 16.65 M-61.9 16.65 Q-61.55 16.05 -61.9 15.25 -62.35 14.15 -62.2 12.95 M-83.1 11.25 Q-84.9 9.65 -87.05 11.05 L-87.9 11.85 Q-89.7 14.0 -89.6 16.65 -89.55 19.45 -86.6 18.95 L-83.95 18.15 -82.8 17.8" fill="none" stroke="#5a4d36" stroke-linecap="round" stroke-linejoin="round" stroke-width="1.0"/>
  </g>
</svg>
