<?xml version="1.0" encoding="UTF-8" standalone="no"?>
<svg xmlns:xlink="http://www.w3.org/1999/xlink" height="12.2px" width="60.3px" xmlns="http://www.w3.org/2000/svg">
  <g transform="matrix(1.0, 0.0, 0.0, 1.0, -11.45, 20.55)">
    <path d="M16.05 -18.3 Q16.2 -19.1 15.45 -19.25 L14.6 -19.35 Q13.35 -19.45 12.6 -18.3 11.85 -17.05 11.95 -15.45 L12.1 -13.45 Q12.3 -10.6 15.1 -11.2 16.2 -11.4 17.05 -12.2 L17.8 -13.1 18.05 -13.45 M18.6 -16.0 L20.2 -17.1 Q20.75 -17.3 21.2 -16.85 L22.05 -15.45 Q22.55 -13.8 22.35 -12.0 22.35 -13.45 21.15 -13.75 20.65 -13.85 20.35 -13.5 20.05 -13.0 20.35 -12.5 20.75 -11.85 21.45 -11.45 M37.8 -14.3 Q36.5 -15.7 34.65 -14.85 34.1 -14.55 34.05 -13.85 L37.8 -14.3 M27.5 -18.85 Q27.9 -19.6 27.85 -19.15 27.65 -16.8 28.2 -14.65 L30.9 -15.45 M26.05 -16.6 Q26.6 -17.0 25.2 -17.1 L24.1 -17.0 Q22.95 -16.75 23.55 -15.65 24.05 -14.7 24.9 -14.0 L25.55 -13.05 Q25.65 -12.55 25.1 -12.1 L24.35 -11.7 M26.9 -14.6 L28.2 -14.65 Q28.6 -13.15 29.4 -11.7 L30.35 -11.15 M37.5 -11.7 Q36.2 -11.55 35.25 -12.1 34.35 -12.55 34.05 -13.85 M31.5 -18.6 Q32.3 -15.15 32.0 -11.7 31.9 -10.85 32.2 -10.05 M50.65 -16.3 Q50.25 -16.8 49.75 -16.05 48.7 -14.45 50.4 -13.3 L51.25 -13.4 Q51.8 -14.0 51.7 -14.8 51.55 -15.7 50.65 -16.3 M52.65 -14.3 L54.5 -14.3 56.7 -16.85 56.95 -17.15 52.95 -16.75 52.65 -16.8 M57.55 -14.3 L56.95 -14.3 54.5 -14.3 54.15 -13.8 Q53.55 -12.85 53.25 -11.7 55.3 -12.65 57.8 -12.3 L58.1 -12.3 M59.25 -17.75 L59.4 -17.45 59.2 -15.15 Q58.95 -13.8 59.55 -12.85 58.45 -15.9 61.05 -17.25 L62.4 -17.75 62.95 -13.15 M44.95 -18.85 L45.15 -19.2 45.25 -19.75 43.2 -19.7 Q41.6 -18.95 41.2 -17.15 40.7 -14.75 42.15 -13.15 42.8 -12.4 43.8 -12.4 44.95 -12.4 45.8 -13.2 46.7 -14.0 47.1 -15.2 L47.15 -15.3 47.35 -15.75 44.1 -15.7 M47.5 -16.6 L47.35 -15.75 48.35 -15.85 48.95 -16.0 M47.15 -15.3 Q46.4 -12.15 46.95 -8.85 M64.7 -17.15 Q64.1 -16.05 64.75 -14.75 65.15 -14.0 65.85 -14.0 66.55 -14.0 66.75 -14.75 67.0 -15.6 66.4 -16.35 L64.7 -17.6 M68.4 -18.85 Q67.8 -16.95 68.35 -14.85 68.55 -14.85 68.55 -15.15 68.55 -16.45 68.9 -17.6 69.15 -18.45 69.95 -18.95 70.55 -19.3 71.25 -19.45" fill="none" stroke="#5a4d36" stroke-linecap="round" stroke-linejoin="round" stroke-width="1.0"/>
  </g>
</svg>
