<?xml version="1.0" encoding="UTF-8" standalone="no"?>
<svg xmlns:xlink="http://www.w3.org/1999/xlink" height="14.4px" width="63.35px" xmlns="http://www.w3.org/2000/svg">
  <g transform="matrix(1.0, 0.0, 0.0, 1.0, -10.95, 21.1)">
    <path d="M11.45 -18.0 L12.25 -18.4 12.35 -18.45 15.7 -19.6 18.3 -20.6 M16.9 -15.7 L12.9 -14.8 12.9 -14.75 Q13.1 -11.9 12.75 -9.15 L16.6 -9.0 17.2 -8.85 M12.6 -14.6 L12.9 -14.75 12.7 -16.6 12.5 -18.0 12.25 -18.4 M21.2 -12.85 Q20.85 -13.85 19.55 -13.2 L18.85 -12.65 Q17.9 -11.45 19.15 -10.75 L20.85 -10.5 Q21.2 -10.55 21.45 -10.85 M12.75 -9.15 L12.6 -8.3 M34.35 -14.1 L36.65 -13.8 37.5 -13.7 Q37.8 -14.1 37.3 -15.2 36.65 -16.65 35.2 -15.65 L34.3 -14.7 34.05 -14.1 34.35 -14.1 M37.2 -10.55 L35.5 -10.9 Q33.6 -11.35 33.85 -13.15 L34.05 -14.1 M29.5 -19.45 L29.45 -17.75 29.1 -15.15 31.75 -15.15 32.05 -15.15 M39.5 -10.85 Q40.25 -11.85 39.85 -13.25 39.5 -14.4 39.6 -15.7 L39.8 -16.85 Q40.85 -14.8 42.8 -16.0 43.1 -16.15 43.2 -16.6 M18.9 -15.45 Q19.8 -17.05 21.2 -16.3 22.45 -15.6 22.3 -13.95 L22.25 -12.3 22.05 -10.55 21.9 -10.25 M26.35 -15.15 Q26.2 -16.7 24.65 -16.35 L24.3 -16.05 Q23.7 -15.35 24.3 -14.8 L24.65 -14.35 Q25.45 -13.35 26.55 -12.8 28.0 -12.05 26.7 -11.1 26.2 -10.7 25.7 -10.95 25.05 -11.25 24.6 -12.0 M32.05 -11.7 Q31.55 -11.1 30.35 -11.15 30.05 -11.15 29.75 -11.45 28.4 -12.55 28.95 -14.65 L29.1 -15.15 27.2 -14.85 M56.4 -18.0 Q56.85 -18.05 56.45 -18.65 L55.65 -19.65 Q55.2 -20.1 54.6 -20.15 53.8 -20.2 53.25 -19.7 52.5 -19.0 52.2 -17.95 51.9 -16.7 52.1 -15.45 52.4 -13.7 53.5 -12.4 54.5 -11.2 56.1 -10.95 56.9 -10.8 57.4 -11.5 L57.65 -11.95 57.8 -13.0 57.8 -12.8 57.65 -11.95 Q57.35 -9.55 57.4 -7.2 M44.35 -10.85 Q44.15 -13.6 44.7 -16.3 44.8 -16.7 45.35 -16.95 45.7 -17.15 46.0 -16.95 46.7 -16.55 46.9 -15.9 L47.55 -13.15 47.95 -11.5 M59.6 -19.8 Q59.8 -16.0 60.25 -12.25 L60.8 -10.2 Q61.1 -9.4 62.0 -9.6 M73.2 -15.6 L73.35 -16.0 73.4 -16.2 71.35 -16.05 Q71.0 -15.9 71.05 -15.45 71.2 -14.6 71.75 -13.9 L73.2 -12.4 Q73.7 -12.0 73.8 -11.5 73.9 -11.2 73.5 -11.0 L72.4 -10.6 M67.2 -11.0 Q66.85 -13.65 68.2 -15.75 L68.75 -15.7 Q69.4 -15.1 69.65 -14.15 L70.25 -11.8 70.4 -11.2 M62.8 -13.8 Q64.1 -13.6 64.1 -14.6 L63.75 -14.95 Q63.3 -15.0 62.95 -14.65 62.5 -14.2 62.55 -13.6 62.6 -12.5 63.35 -11.7 64.1 -10.9 65.25 -10.7 L66.7 -10.95 66.8 -11.2" fill="none" stroke="#5a4d36" stroke-linecap="round" stroke-linejoin="round" stroke-width="1.0"/>
  </g>
</svg>
