<?xml version="1.0" encoding="UTF-8" standalone="no"?>
<svg xmlns:xlink="http://www.w3.org/1999/xlink" height="14.6px" width="45.4px" xmlns="http://www.w3.org/2000/svg">
  <g transform="matrix(1.0, 0.0, 0.0, 1.0, -18.95, 21.85)">
    <path d="M36.05 -17.45 Q36.7 -17.8 36.05 -18.85 34.5 -21.4 31.5 -21.35 30.0 -21.3 28.6 -20.55 25.75 -19.05 26.15 -15.7 26.4 -13.65 28.35 -12.9 L32.1 -13.1 Q33.85 -13.95 34.6 -15.5 L34.9 -16.3 Q34.7 -13.85 34.15 -11.45 L34.0 -10.55 33.5 -8.0 29.8 -10.1 Q28.15 -10.9 26.35 -10.8 23.85 -10.7 22.85 -8.45 L22.35 -8.4 Q20.15 -8.85 19.45 -11.15 M37.5 -14.6 Q36.3 -14.5 36.2 -13.15 L36.25 -12.35 36.7 -11.5 Q37.75 -10.2 39.25 -11.4 L39.95 -12.1 Q40.5 -12.65 40.35 -13.45 L39.9 -14.5 39.5 -14.8 37.8 -14.6 M53.8 -16.0 Q52.0 -15.7 52.45 -13.7 52.7 -12.55 53.8 -12.6 54.55 -12.6 55.1 -12.9 55.7 -13.15 56.0 -13.75 56.95 -15.5 54.9 -16.15 L53.8 -16.3 M58.1 -17.45 L58.1 -12.85 Q58.7 -13.4 58.6 -14.6 58.55 -15.6 58.75 -16.6 L58.95 -17.45 59.5 -17.55 61.9 -16.85 63.85 -16.6 M41.8 -15.15 L44.95 -14.7 45.25 -14.6 Q43.45 -13.75 42.3 -12.1 L46.35 -12.0 46.65 -12.0 M47.5 -15.7 L47.5 -12.0 47.5 -11.7 48.45 -14.8 Q48.75 -15.75 49.8 -16.0 50.75 -15.0 50.95 -13.5 51.1 -12.7 51.5 -12.0 M42.3 -12.1 Q41.6 -11.05 41.15 -9.7 L40.65 -8.0 Q40.9 -7.75 42.05 -8.45 L43.45 -8.65 45.5 -8.05 47.5 -7.75 Q48.8 -7.85 50.1 -8.35 L51.25 -8.85 M42.3 -12.1 L41.2 -12.3" fill="none" stroke="#5a4d36" stroke-linecap="round" stroke-linejoin="round" stroke-width="1.0"/>
  </g>
</svg>
