<?xml version="1.0" encoding="UTF-8" standalone="no"?>
<svg xmlns:xlink="http://www.w3.org/1999/xlink" height="15.9px" width="60.25px" xmlns="http://www.w3.org/2000/svg">
  <g transform="matrix(1.0, 0.0, 0.0, 1.0, -12.4, 22.25)">
    <path d="M12.9 -12.3 Q13.45 -12.3 14.25 -12.7 L14.85 -12.95 14.95 -17.45 14.9 -19.0 M15.15 -6.85 Q14.85 -9.9 14.85 -12.95 18.1 -14.4 21.45 -15.35 L21.45 -18.0 21.45 -19.85 M34.85 -13.55 Q35.25 -12.55 35.8 -11.7 37.7 -12.5 37.45 -14.8 37.4 -15.4 36.8 -15.7 L36.05 -15.95 35.45 -16.05 35.3 -15.85 35.0 -15.4 Q34.5 -14.5 34.85 -13.55 M29.5 -15.7 L30.1 -14.1 Q30.8 -15.85 32.7 -16.7 L33.5 -16.85 M36.05 -15.95 Q36.0 -16.65 35.45 -16.05 M39.15 -14.3 L42.95 -15.3 Q42.3 -16.9 40.35 -16.75 39.45 -16.7 39.25 -15.7 39.05 -14.95 39.15 -14.3 39.3 -13.0 40.8 -12.4 L42.35 -12.3 42.65 -12.3 M21.75 -15.45 L21.45 -15.35 21.45 -7.7 M28.35 -10.85 L27.2 -10.7 Q26.5 -10.7 26.05 -11.15 25.5 -11.7 25.25 -12.6 L25.15 -13.6 Q25.15 -14.8 26.15 -15.6 L26.75 -15.7 Q28.1 -15.1 28.05 -13.45 L26.05 -13.55 25.2 -13.6 25.15 -13.6 M30.25 -11.1 L30.25 -11.7 30.1 -14.1 M54.95 -10.85 Q55.65 -13.2 55.15 -15.75 L54.95 -17.75 M52.65 -16.85 Q52.65 -18.25 54.1 -18.4 L56.1 -18.3 Q59.55 -17.7 59.25 -14.3 59.1 -12.85 58.55 -11.6 58.1 -10.55 57.15 -9.8 55.25 -8.25 53.4 -9.65 L51.8 -11.15 M48.95 -18.85 Q49.7 -19.15 49.95 -20.25 L50.35 -21.75 M47.5 -17.15 Q46.15 -18.85 44.95 -16.95 44.8 -16.7 45.05 -16.4 45.55 -15.85 46.15 -15.5 L47.5 -14.35 Q47.8 -14.0 47.55 -13.65 47.1 -13.0 46.35 -13.0 45.8 -13.0 45.25 -13.45 M61.35 -14.1 L64.1 -14.7 Q64.25 -14.7 64.4 -14.85 64.15 -16.25 62.95 -16.3 62.4 -16.3 62.05 -15.85 61.55 -15.15 61.35 -14.3 L61.35 -14.1 Q61.1 -12.6 62.7 -12.25 63.6 -12.05 64.1 -12.6 M65.85 -16.85 L66.2 -15.35 Q67.25 -17.9 69.6 -16.1 70.3 -15.55 70.5 -14.3 L71.0 -12.3 72.15 -13.15 M66.7 -12.0 L66.2 -15.35 M60.4 -14.0 L61.35 -14.1" fill="none" stroke="#5a4d36" stroke-linecap="round" stroke-linejoin="round" stroke-width="1.0"/>
  </g>
</svg>
