<?xml version="1.0" encoding="UTF-8" standalone="no"?>
<svg xmlns:xlink="http://www.w3.org/1999/xlink" height="13.3px" width="58.05px" xmlns="http://www.w3.org/2000/svg">
  <g transform="matrix(1.0, 0.0, 0.0, 1.0, -14.6, 21.1)">
    <path d="M15.15 -20.6 Q15.7 -20.55 15.6 -19.75 L15.35 -17.15 Q14.95 -12.75 15.15 -8.3 15.2 -10.7 17.35 -11.55 17.9 -11.7 18.45 -11.3 19.75 -10.3 21.15 -9.65 L23.85 -9.5 Q24.9 -9.85 25.55 -10.95 L26.05 -12.3 M32.35 -15.7 L32.65 -15.65 32.65 -20.0 32.65 -20.3 M37.75 -18.9 Q36.25 -15.65 32.9 -15.65 L35.35 -14.5 36.6 -13.4 Q37.2 -12.65 37.45 -11.7 37.9 -10.15 39.35 -9.55 L40.65 -9.45 M32.9 -15.65 L32.65 -15.65 32.65 -11.7 M27.2 -17.15 Q27.4 -18.5 28.85 -18.05 29.5 -17.85 29.95 -17.35 31.05 -16.25 30.8 -14.6 L30.65 -12.6 30.65 -11.7 M40.15 -15.4 Q40.35 -16.25 41.5 -16.8 L42.35 -17.0 Q44.35 -17.0 44.1 -14.85 L40.15 -15.4 Q39.95 -14.7 40.45 -13.75 41.1 -12.55 42.4 -12.15 L43.5 -12.1 44.1 -12.3 M30.35 -14.3 Q28.75 -15.15 27.75 -13.45 L27.6 -13.15 Q27.35 -11.3 29.2 -11.55 L29.5 -11.6 30.35 -11.7 M58.4 -16.85 L58.3 -16.3 Q58.15 -15.15 58.8 -14.4 59.95 -13.1 60.85 -14.4 61.6 -15.5 61.55 -16.85 61.7 -15.25 63.05 -14.5 L63.85 -14.3 M52.95 -14.6 L52.95 -14.3 53.05 -11.6 53.5 -11.65 54.4 -12.0 Q56.55 -13.25 56.6 -15.7 56.7 -18.25 54.55 -19.4 L54.45 -19.45 53.8 -19.75 M54.45 -19.45 Q54.4 -20.4 53.0 -19.9 49.95 -18.9 49.6 -15.7 49.5 -14.5 50.05 -13.4 50.95 -11.5 53.05 -11.6 L53.25 -8.85 Q54.5 -11.0 56.9 -10.7 L58.75 -10.1 Q61.35 -8.8 63.55 -10.3 64.85 -11.1 65.85 -12.3 M64.7 -18.3 L64.7 -16.85 Q65.65 -19.15 67.85 -17.75 70.2 -16.2 71.75 -18.35 L72.15 -19.15 M65.0 -15.15 L64.9 -15.7 64.7 -16.85" fill="none" stroke="#5a4d36" stroke-linecap="round" stroke-linejoin="round" stroke-width="1.0"/>
  </g>
</svg>
