<?xml version="1.0" encoding="UTF-8" standalone="no"?>
<svg xmlns:xlink="http://www.w3.org/1999/xlink" height="18.55px" width="62.7px" xmlns="http://www.w3.org/2000/svg">
  <g transform="matrix(1.0, 0.0, 0.0, 1.0, -11.4, 24.0)">
    <path d="M19.2 -21.05 Q19.1 -21.9 18.5 -22.1 L17.1 -21.9 Q14.9 -20.8 15.35 -18.3 L15.7 -16.75 Q15.9 -15.9 16.35 -15.15 L16.6 -14.7 18.5 -17.6 19.1 -19.1 19.2 -21.05 M28.65 -9.55 L27.4 -8.45 Q24.1 -5.9 20.75 -8.0 19.05 -9.05 17.1 -8.65 15.4 -8.3 13.9 -7.55 15.7 -8.75 16.65 -10.75 17.55 -12.7 16.6 -14.7 15.0 -12.5 13.1 -10.75 L11.9 -9.55 M33.95 -18.65 Q33.05 -17.0 32.9 -15.1 L32.85 -14.4 33.0 -14.45 Q35.75 -14.85 36.7 -17.05 37.8 -19.75 35.05 -19.55 34.4 -19.5 33.95 -18.65 M46.55 -12.35 Q43.55 -11.05 41.45 -13.65 L40.75 -14.75 39.05 -14.5 36.2 -14.3 Q34.35 -14.25 32.75 -13.45 L32.7 -12.75 Q32.5 -9.8 30.9 -7.65 L29.45 -5.95 Q28.05 -10.25 31.75 -12.85 L32.75 -13.45 32.85 -14.4 31.4 -14.2 Q29.35 -13.85 29.05 -15.1 M23.45 -21.5 Q22.65 -20.65 24.95 -19.15 L26.25 -19.2 Q26.85 -19.7 27.05 -20.7 M23.05 -16.7 L24.65 -16.7 25.45 -16.7 24.3 -11.45 Q24.25 -11.15 24.65 -10.75 M46.95 -17.1 Q46.2 -13.35 49.15 -12.5 49.7 -12.35 50.4 -13.25 L51.3 -14.7 Q52.8 -12.95 54.9 -12.75 56.1 -14.55 55.05 -16.15 L54.1 -17.1 M58.45 -17.2 L59.15 -17.1 Q59.85 -16.9 60.15 -16.2 60.45 -15.3 60.0 -14.6 58.35 -12.0 56.1 -13.95 L56.3 -14.55 58.45 -17.2 57.7 -17.1 M39.05 -14.5 Q39.7 -15.25 40.55 -15.45 L40.5 -15.6 Q40.35 -16.3 40.8 -16.9 42.4 -19.0 43.75 -17.1 42.85 -15.6 41.35 -15.55 L40.55 -15.45 40.75 -14.75 M70.0 -16.4 L69.55 -15.95 Q68.8 -15.3 67.9 -15.1 65.1 -14.45 66.55 -17.05 67.5 -18.7 69.6 -17.5 L69.35 -18.25 Q68.9 -19.65 68.8 -21.1 68.65 -23.25 70.4 -23.5 L70.7 -21.9 70.95 -20.3 Q71.35 -18.0 70.0 -16.4 L70.9 -15.2 Q72.05 -13.95 73.6 -13.95 M63.25 -17.5 Q62.65 -17.1 62.4 -16.55 62.05 -15.7 62.45 -14.9 62.85 -14.1 63.7 -14.05 64.45 -13.95 65.05 -14.55 65.65 -15.1 65.55 -15.85 65.45 -16.7 64.7 -16.9 L63.25 -16.7 M69.6 -17.5 L69.85 -16.8 70.0 -16.4" fill="none" stroke="#5a4d36" stroke-linecap="round" stroke-linejoin="round" stroke-width="1.0"/>
  </g>
</svg>
