<?xml version="1.0" encoding="UTF-8" standalone="no"?>
<svg xmlns:xlink="http://www.w3.org/1999/xlink" height="109.15px" width="267.7px" xmlns="http://www.w3.org/2000/svg">
  <g transform="matrix(1.0, 0.0, 0.0, 1.0, -436.6, -406.3)">
    <path d="M688.7 414.8 L688.9 414.8 690.65 420.4 693.45 429.35 695.6 436.1 Q692.65 438.5 689.2 439.7 692.65 438.5 695.6 436.1 L697.9 443.7 700.5 451.75 700.55 451.9 702.0 456.65 703.5 461.6 703.5 464.3 Q695.9 469.45 687.1 468.65 682.15 467.9 679.3 464.9 L676.95 467.05 Q675.1 469.15 672.75 470.85 668.8 473.6 664.1 475.1 L656.45 477.4 648.75 479.85 641.0 481.9 633.05 483.7 625.1 485.15 617.1 486.3 609.05 487.25 600.95 487.75 592.5 488.05 584.0 488.15 575.55 488.1 567.1 487.85 561.2 487.45 555.2 487.35 549.3 487.45 543.3 487.7 537.6 488.0 531.8 488.3 526.1 488.6 520.3 488.8 514.7 489.7 505.65 490.85 498.95 492.05 Q495.6 492.65 492.4 493.7 L486.0 495.95 482.8 497.3 480.95 493.6 462.25 447.45 480.95 493.6 479.2 496.95 481.2 498.15 Q482.55 500.1 482.25 502.5 481.6 507.35 477.85 510.5 474.5 513.05 470.0 514.0 464.3 515.45 458.7 513.7 L456.55 506.5 454.15 499.05 453.35 496.55 449.1 484.5 448.95 484.15 446.55 477.9 444.65 473.1 443.9 471.45 442.15 467.45 441.45 466.0 Q439.3 461.5 437.7 457.05 436.9 454.65 438.25 452.7 441.7 447.9 446.7 445.3 453.85 441.75 460.3 442.65 L462.25 447.45 463.5 446.9 464.95 445.65 468.15 443.6 Q471.05 442.1 474.1 440.9 478.05 439.3 482.15 438.5 L490.1 436.85 498.6 435.5 507.15 434.65 515.85 434.45 Q520.2 434.4 524.55 434.5 L533.25 434.75 541.9 435.25 550.7 435.7 559.9 435.9 569.1 436.0 578.0 435.95 586.8 435.9 595.6 435.75 604.05 435.55 612.05 435.1 619.85 434.4 627.6 433.5 635.25 432.2 642.8 430.3 650.2 427.95 657.3 424.9 664.15 421.3 666.55 421.35 666.55 421.2 Q666.55 420.15 666.8 419.05 665.05 417.9 665.45 415.75 665.75 414.0 666.9 412.95 669.35 411.05 672.0 409.75 L672.95 411.45 672.1 409.7 672.25 409.6 Q678.95 406.4 687.05 407.3 L687.75 407.75 Q691.2 410.7 688.9 414.65 L688.7 414.8 Q681.1 425.05 669.05 421.35 681.1 425.05 688.7 414.8 M692.4 446.95 Q695.3 445.75 697.85 443.7 L697.9 443.7 697.85 443.7 Q695.3 445.75 692.4 446.95 M685.1 425.45 Q686.0 425.3 687.35 424.55 689.6 423.45 690.4 421.3 L690.65 420.4 690.4 421.3 Q689.6 423.45 687.35 424.55 686.0 425.3 685.1 425.45 M679.3 464.9 L678.2 463.15 Q676.7 460.3 675.65 457.3 674.25 453.5 673.15 449.6 L671.15 442.4 669.25 435.15 667.2 425.7 666.55 421.35 667.2 425.7 669.25 435.15 671.15 442.4 673.15 449.6 Q674.25 453.5 675.65 457.3 676.7 460.3 678.2 463.15 L679.3 464.9 M672.4 415.75 L669.85 416.5 Q669.3 413.3 672.95 411.45 677.5 409.2 682.0 410.8 L682.9 414.0 682.3 414.7 Q676.7 419.6 669.35 419.3 L669.2 419.3 668.9 419.3 666.8 419.05 668.9 419.3 669.2 419.3 669.35 419.3 Q676.7 419.6 682.3 414.7 L682.9 414.0 682.0 410.8 Q677.5 409.2 672.95 411.45 669.3 413.3 669.85 416.5 L672.4 415.75 M458.9 489.1 L457.1 491.05 Q455.1 493.5 453.35 496.55 455.1 493.5 457.1 491.05 L458.9 489.1 M449.3 473.5 L448.4 474.95 446.55 477.9 448.4 474.95 449.3 473.5 M456.1 483.6 Q453.5 486.5 452.1 490.0 453.5 486.5 456.1 483.6 M452.5 479.05 L451.6 480.0 Q450.0 481.85 448.95 484.15 450.0 481.85 451.6 480.0 L452.5 479.05 M447.45 468.1 L446.9 468.9 Q445.35 470.8 444.65 473.1 445.35 470.8 446.9 468.9 L447.45 468.1 M444.25 455.2 Q442.4 457.45 441.35 460.25 L440.8 461.35 441.35 460.25 Q442.4 457.45 444.25 455.2 M686.95 431.85 Q690.5 431.2 693.45 429.35 690.5 431.2 686.95 431.85 M697.45 458.9 L700.15 457.85 702.0 456.65 700.15 457.85 697.45 458.9 M695.6 454.3 Q698.15 453.45 700.55 451.9 698.15 453.45 695.6 454.3 M445.6 461.2 Q443.6 463.9 442.15 467.45 443.6 463.9 445.6 461.2 M469.05 500.0 Q470.4 499.1 472.4 499.1 474.5 499.45 475.3 501.1 474.8 508.65 467.2 508.8 462.15 508.9 461.35 504.95 461.05 503.7 461.3 501.9 462.25 499.5 464.1 498.4 468.0 495.85 471.75 495.5 475.5 495.1 479.2 496.95 475.5 495.1 471.75 495.5 468.0 495.85 464.1 498.4 462.25 499.5 461.3 501.9 461.05 503.7 461.35 504.95 462.15 508.9 467.2 508.8 474.8 508.65 475.3 501.1 474.5 499.45 472.4 499.1 470.4 499.1 469.05 500.0 M458.4 498.25 L457.6 499.7 456.55 501.9 457.6 499.7 458.4 498.25" fill="#d8c49b" fill-rule="evenodd" stroke="none"/>
    <path d="M688.9 414.8 L688.9 414.65 688.7 414.8 Q681.1 425.05 669.05 421.35 M688.9 414.8 L690.65 420.4 693.45 429.35 695.6 436.1 697.9 443.7 700.5 451.75 M700.55 451.9 L702.0 456.65 703.5 461.6 M703.5 464.3 Q695.9 469.45 687.1 468.65 682.15 467.9 679.3 464.9 L678.2 463.15 Q676.7 460.3 675.65 457.3 674.25 453.5 673.15 449.6 L671.15 442.4 669.25 435.15 667.2 425.7 666.55 421.35 666.55 421.2 Q666.55 420.15 666.8 419.05 665.05 417.9 665.45 415.75 665.75 414.0 666.9 412.95 669.35 411.05 672.0 409.75 L672.1 409.7 672.25 409.6 Q678.95 406.4 687.05 407.3 L687.75 407.75 Q691.2 410.7 688.9 414.65 M676.95 467.05 Q675.1 469.15 672.75 470.85 668.8 473.6 664.1 475.1 L656.45 477.4 648.75 479.85 641.0 481.9 633.05 483.7 625.1 485.15 617.1 486.3 609.05 487.25 600.95 487.75 592.5 488.05 584.0 488.15 575.55 488.1 567.1 487.85 561.2 487.45 555.2 487.35 549.3 487.45 543.3 487.7 537.6 488.0 531.8 488.3 526.1 488.6 520.3 488.8 514.7 489.7 505.65 490.85 498.95 492.05 Q495.6 492.65 492.4 493.7 L486.0 495.95 482.8 497.3 Q481.9 497.7 481.2 498.15 482.55 500.1 482.25 502.5 481.6 507.35 477.85 510.5 474.5 513.05 470.0 514.0 464.3 515.45 458.7 513.7 L456.55 506.5 454.15 499.05 453.35 496.55 449.1 484.5 M448.95 484.15 L446.55 477.9 444.65 473.1 443.9 471.45 442.15 467.45 441.45 466.0 Q439.3 461.5 437.7 457.05 436.9 454.65 438.25 452.7 441.7 447.9 446.7 445.3 453.85 441.75 460.3 442.65 L462.25 447.45 480.95 493.6 M463.5 446.9 L464.95 445.65 468.15 443.6 Q471.05 442.1 474.1 440.9 478.05 439.3 482.15 438.5 L490.1 436.85 498.6 435.5 507.15 434.65 515.85 434.45 Q520.2 434.4 524.55 434.5 L533.25 434.75 541.9 435.25 550.7 435.7 559.9 435.9 569.1 436.0 578.0 435.95 586.8 435.9 595.6 435.75 604.05 435.55 612.05 435.1 619.85 434.4 627.6 433.5 635.25 432.2 642.8 430.3 650.2 427.95 657.3 424.9 664.15 421.3 M666.8 419.05 L668.9 419.3 669.2 419.3 669.35 419.3 Q676.7 419.6 682.3 414.7 L682.9 414.0 682.0 410.8 Q677.5 409.2 672.95 411.45 669.3 413.3 669.85 416.5 L672.4 415.75 M481.2 498.15 L479.2 496.95 Q475.5 495.1 471.75 495.5 468.0 495.85 464.1 498.4 462.25 499.5 461.3 501.9 461.05 503.7 461.35 504.95 462.15 508.9 467.2 508.8 474.8 508.65 475.3 501.1 474.5 499.45 472.4 499.1 470.4 499.1 469.05 500.0" fill="none" stroke="#5a4d36" stroke-linecap="round" stroke-linejoin="round" stroke-width="1.6"/>
    <path d="M695.6 436.1 L696.65 435.1 M697.9 443.7 L697.85 443.7 Q695.3 445.75 692.4 446.95 M695.6 436.1 Q692.65 438.5 689.2 439.7 M697.9 443.7 L698.8 442.9 M700.5 451.75 L700.55 451.9 Q698.15 453.45 695.6 454.3 M449.1 484.5 L448.95 484.15 Q450.0 481.85 451.6 480.0 L452.5 479.05 M690.65 420.4 L690.4 421.3 Q689.6 423.45 687.35 424.55 686.0 425.3 685.1 425.45 M702.0 456.65 L700.15 457.85 697.45 458.9 M693.45 429.35 Q690.5 431.2 686.95 431.85 M440.8 461.35 L441.35 460.25 Q442.4 457.45 444.25 455.2 M444.65 473.1 Q445.35 470.8 446.9 468.9 L447.45 468.1 M452.1 490.0 Q453.5 486.5 456.1 483.6 M446.55 477.9 L448.4 474.95 449.3 473.5 M453.35 496.55 Q455.1 493.5 457.1 491.05 L458.9 489.1 M442.15 467.45 Q443.6 463.9 445.6 461.2 M456.55 501.9 L457.6 499.7 458.4 498.25" fill="none" stroke="#5a4d36" stroke-linecap="round" stroke-linejoin="round" stroke-width="0.05"/>
  </g>
</svg>
