<?xml version="1.0" encoding="UTF-8" standalone="no"?>
<svg xmlns:xlink="http://www.w3.org/1999/xlink" height="11.75px" width="51.15px" xmlns="http://www.w3.org/2000/svg">
  <g transform="matrix(1.0, 0.0, 0.0, 1.0, -15.45, 21.4)">
    <path d="M23.45 -18.3 Q24.2 -18.8 23.35 -19.65 L22.6 -20.3 18.2 -20.15 17.0 -19.3 16.15 -18.25 Q15.45 -16.75 17.05 -15.95 18.05 -15.4 19.2 -15.2 L21.65 -14.55 23.35 -13.35 Q24.3 -12.45 23.6 -11.55 22.9 -10.7 21.9 -10.45 L18.9 -10.2 Q18.05 -10.25 17.4 -10.8 L17.2 -11.45 M36.95 -19.55 L37.0 -19.15 37.2 -16.85 37.5 -12.6 Q37.65 -14.25 38.4 -15.7 L39.2 -17.15 Q40.7 -16.2 41.1 -14.35 41.25 -13.85 41.5 -13.45 M34.9 -19.45 Q35.35 -20.15 35.3 -19.75 35.05 -17.55 35.25 -15.45 L35.25 -15.3 35.8 -15.45 M35.5 -11.7 L35.35 -12.85 35.25 -15.3 34.9 -15.3 33.2 -15.7 M30.5 -14.75 Q29.25 -14.1 30.4 -12.65 L31.3 -11.95 Q31.5 -11.85 31.7 -12.05 33.55 -13.7 31.8 -15.15 L31.0 -15.2 30.5 -14.75 M26.05 -14.6 Q25.05 -13.7 25.7 -11.95 26.25 -10.35 27.35 -11.35 27.95 -11.85 28.15 -12.65 L28.45 -14.0 Q28.55 -14.9 27.75 -14.95 L26.05 -14.6 M52.45 -15.8 L52.1 -15.95 52.05 -15.65 52.45 -15.8 53.25 -15.75 Q54.1 -15.45 54.0 -14.35 53.95 -13.45 53.1 -13.25 52.55 -13.15 52.2 -13.9 51.85 -14.75 52.05 -15.65 L51.5 -15.45 M58.65 -12.8 Q59.4 -12.85 59.45 -13.75 59.55 -14.85 58.6 -15.45 L56.85 -15.75 Q56.45 -14.75 57.1 -13.7 57.7 -12.7 58.65 -12.8 M42.95 -16.6 Q43.4 -16.95 43.45 -15.7 43.5 -14.25 44.2 -13.05 44.65 -12.25 45.2 -12.5 46.1 -12.85 46.55 -14.05 L46.95 -15.45 Q47.15 -14.45 47.75 -13.6 48.1 -13.15 48.35 -13.3 49.55 -14.0 49.8 -15.3 50.1 -16.55 49.8 -18.0 M64.7 -19.3 L64.7 -19.45 64.7 -20.6 64.6 -19.8 64.7 -19.3 Q65.1 -17.45 65.65 -15.75 L66.1 -14.6 M64.1 -15.45 Q64.4 -16.95 63.3 -16.3 62.4 -15.7 62.5 -14.65 62.55 -13.6 63.05 -13.7 64.0 -13.85 64.1 -15.45 64.7 -17.25 64.7 -19.3" fill="none" stroke="#5a4d36" stroke-linecap="round" stroke-linejoin="round" stroke-width="1.0"/>
  </g>
</svg>
