<?xml version="1.0" encoding="UTF-8" standalone="no"?>
<svg xmlns:xlink="http://www.w3.org/1999/xlink" height="14.95px" width="61.45px" xmlns="http://www.w3.org/2000/svg">
  <g transform="matrix(1.0, 0.0, 0.0, 1.0, -13.05, 21.6)">
    <path d="M21.85 -17.1 Q21.55 -20.2 18.3 -20.75 L16.75 -20.8 Q15.9 -20.7 15.15 -20.2 12.25 -18.3 14.55 -16.6 15.5 -15.9 16.75 -15.6 20.95 -14.6 22.5 -10.75 22.65 -10.35 21.8 -9.6 19.5 -7.45 16.55 -8.6 15.7 -8.95 15.1 -9.95 M32.2 -9.95 Q31.3 -12.45 31.45 -15.1 31.6 -16.95 33.4 -16.8 36.05 -16.5 35.9 -13.55 L35.8 -10.35 M23.85 -14.35 Q23.45 -11.25 26.1 -10.1 L27.8 -10.05 Q30.7 -10.9 29.6 -13.6 L28.25 -16.3 M53.7 -9.15 L53.7 -15.5 54.5 -15.45 Q57.05 -15.15 56.5 -12.75 L56.5 -12.35 57.25 -13.95 Q57.9 -15.95 59.25 -17.1 L59.5 -16.3 59.65 -11.95 M46.55 -13.55 Q48.0 -12.9 49.7 -13.1 L50.5 -13.15 Q49.55 -15.75 47.05 -15.25 46.35 -15.1 46.15 -14.25 45.95 -13.55 46.3 -12.85 48.1 -9.25 52.1 -9.95 M37.4 -19.5 L44.15 -20.25 44.55 -20.25 52.1 -20.3 M44.15 -9.95 L44.15 -10.75 44.15 -20.25 M71.1 -17.0 Q70.8 -16.3 70.8 -15.5 73.05 -15.4 72.7 -17.4 72.6 -17.9 72.1 -17.8 71.4 -17.7 71.1 -17.0 M68.0 -12.35 L67.1 -20.3 66.85 -21.1 M62.85 -7.15 Q61.8 -10.15 61.55 -13.25 L61.55 -13.55 61.45 -15.1 Q61.45 -15.9 61.95 -16.3 62.45 -16.7 63.25 -16.8 L64.7 -16.65 Q65.65 -16.3 65.75 -15.4 65.85 -14.7 65.3 -13.9 63.6 -11.35 61.55 -13.25 M74.0 -13.15 Q71.65 -13.0 70.8 -15.5" fill="none" stroke="#5a4d36" stroke-linecap="round" stroke-linejoin="round" stroke-width="1.0"/>
  </g>
</svg>
