<?xml version="1.0" encoding="UTF-8" standalone="no"?>
<svg xmlns:xlink="http://www.w3.org/1999/xlink" height="15.0px" width="64.45px" xmlns="http://www.w3.org/2000/svg">
  <g transform="matrix(1.0, 0.0, 0.0, 1.0, 92.15, -6.95)">
    <path d="M-38.6 13.45 L-37.95 13.35 -36.9 13.3 -36.95 12.0 -37.0 10.45 M-34.2 9.95 L-34.05 10.9 -33.9 12.7 -32.6 12.25 -31.95 12.0 M-31.35 14.85 Q-31.5 15.75 -30.75 16.3 L-29.9 16.7 Q-29.05 16.9 -28.65 16.2 L-28.25 15.15 Q-28.0 14.1 -28.9 13.6 L-29.6 13.3 -29.95 13.2 -30.1 13.25 -30.65 13.65 Q-31.2 14.1 -31.35 14.85 M-31.95 17.7 Q-32.1 17.55 -32.65 17.7 L-33.15 17.6 -33.7 16.85 -33.9 15.35 -33.9 12.95 -33.9 12.7 -36.9 13.3 -36.95 14.25 -36.9 16.75 Q-36.8 17.65 -35.75 17.85 -35.2 17.9 -35.15 17.4 M-39.7 14.55 Q-40.75 15.15 -40.9 16.3 -41.05 17.2 -40.65 17.95 L-40.2 18.5 Q-39.25 19.3 -38.6 18.25 L-38.25 17.55 Q-37.95 16.65 -38.3 15.8 -38.75 14.85 -39.7 14.55 M-46.35 9.2 Q-46.35 8.4 -47.1 8.65 L-47.75 9.0 -48.45 9.6 -49.0 10.45 Q-50.1 12.65 -49.5 14.95 -49.25 16.05 -48.65 16.9 -48.35 17.3 -47.9 17.25 -47.25 17.25 -46.7 16.85 -45.9 16.35 -45.7 15.5 L-45.45 20.55 -45.4 21.45 M-55.35 18.0 Q-55.55 18.25 -55.85 18.35 L-56.65 18.25 Q-57.75 17.15 -57.4 15.65 L-57.1 14.8 Q-56.75 14.1 -55.95 14.3 -55.0 14.5 -54.85 15.4 L-54.8 14.55 -54.6 13.1 -54.45 11.7 -54.3 10.6 -54.25 9.65 -54.25 9.35 M-53.15 18.8 Q-54.1 19.0 -54.7 18.45 L-54.95 17.85 -54.95 15.8 -54.85 15.4 M-60.2 13.2 L-61.05 13.85 -61.55 15.15 -61.6 15.5 Q-60.3 15.85 -58.95 15.5 L-58.5 15.35 -59.6 13.45 Q-59.75 13.15 -60.2 13.2 M-58.5 18.5 L-58.95 18.6 -60.4 18.35 Q-61.6 17.8 -61.65 16.45 L-61.6 15.5 -62.1 15.35 M-47.6 15.0 L-45.25 14.95 -44.9 14.95 M-43.65 14.4 L-43.4 16.75 Q-43.3 15.75 -42.65 15.0 -42.45 14.8 -42.1 14.7 L-41.75 14.7 M-42.85 19.75 L-43.4 16.75 M-67.0 14.4 L-65.25 14.1 Q-65.3 12.0 -64.95 9.95 L-64.8 8.85 M-76.5 11.05 L-76.35 10.75 -76.2 10.45 M-73.2 12.8 L-72.85 15.4 Q-72.6 14.4 -71.9 13.75 -71.5 13.35 -70.95 13.1 -70.15 12.7 -69.45 13.1 L-68.7 13.8 -68.4 14.55 -68.25 16.3 -68.05 18.15 -67.65 18.8 M-72.85 15.4 L-72.75 17.85 -72.6 19.45 -72.55 19.9 M-82.15 14.7 Q-81.4 13.4 -80.05 13.2 -79.65 13.15 -79.4 13.55 -78.95 14.5 -78.75 15.5 -78.35 17.55 -78.7 19.6 -78.65 18.35 -79.65 17.6 -79.95 17.35 -80.4 17.4 L-81.15 17.8 -81.45 18.35 -81.25 19.2 -80.45 19.7 -79.35 19.45 M-74.9 19.1 Q-75.55 19.25 -75.7 18.65 L-75.85 15.8 Q-75.7 14.5 -76.0 13.3 M-63.25 13.9 L-65.25 14.1 -65.25 15.65 -64.95 17.8 Q-64.65 19.3 -63.25 18.95 -62.6 18.8 -62.75 18.65 M-91.65 11.45 L-89.9 10.8 -87.55 9.9 -85.75 9.3 -85.8 9.0 M-80.6 7.45 L-81.05 7.8 -84.7 8.9 -85.75 9.3 -85.5 11.05 -85.35 12.95 -85.15 14.6 -84.95 15.8 -84.85 16.75 -84.25 20.55" fill="none" stroke="#5a4d36" stroke-linecap="round" stroke-linejoin="round" stroke-width="1.0"/>
  </g>
</svg>
