<?xml version="1.0" encoding="UTF-8" standalone="no"?>
<svg xmlns:xlink="http://www.w3.org/1999/xlink" height="528.0px" width="720.0px" xmlns="http://www.w3.org/2000/svg">
  <g transform="matrix(1.0, 0.0, 0.0, 1.0, 0.0, 0.0)">
    <path d="M712.0 520.0 L8.0 520.0 8.0 8.0 712.0 8.0 712.0 520.0" fill="#b9a882" fill-rule="evenodd" stroke="none"/>
    <path d="M695.45 81.05 Q691.5 78.8 686.95 81.05 672.0 94.3 673.2 114.0 L674.0 124.95 Q674.55 132.65 676.9 139.7 681.05 152.3 678.0 165.2 673.7 183.7 673.75 202.65 L673.75 226.0 Q673.85 261.05 666.8 295.05 665.5 301.2 659.75 303.5 649.3 307.75 650.1 296.55 L647.3 289.75 645.3 286.25 Q633.2 284.5 622.4 291.5 616.5 310.8 602.25 323.45 598.4 326.95 593.05 327.45 577.45 328.9 564.9 338.4 553.75 346.9 541.1 338.5 523.2 326.55 505.05 315.9 497.35 311.45 491.6 304.7 481.45 292.95 475.35 278.95 L474.65 276.8 Q471.75 275.85 467.75 275.2 455.9 282.55 442.8 284.65 424.5 293.75 422.1 273.75 421.75 271.05 419.75 269.3 417.6 267.3 416.1 264.7 L408.25 264.5 Q384.65 277.7 358.55 274.7 350.65 273.85 350.55 266.55 L350.55 265.2 350.5 265.2 Q365.35 256.7 374.55 241.35 375.05 239.6 375.7 237.85 L393.85 188.65 Q398.65 180.9 404.3 173.7 422.5 154.8 441.7 137.35 449.05 121.1 455.5 104.9 457.6 99.5 458.0 94.0 458.4 88.1 459.7 82.55 478.25 46.25 504.1 13.35 L506.0 11.2 Q506.15 9.05 503.6 9.6 L498.7 9.85 Q490.4 9.7 483.05 13.2 482.7 13.35 482.5 13.75 479.5 35.45 468.15 53.6 L464.55 60.0 463.35 61.9 Q462.4 64.0 461.75 66.0 457.6 75.7 456.0 86.4 L455.9 86.9 Q452.1 100.0 447.45 112.9 443.85 122.9 436.9 130.95 415.2 156.3 391.5 180.4 L391.5 181.85 391.5 182.5 Q390.4 184.15 389.75 186.0 L372.3 232.65 372.1 233.9 Q370.8 236.65 370.0 239.5 L356.5 256.7 Q350.7 260.25 344.95 264.15 333.5 260.9 324.55 250.0 321.3 245.9 316.5 244.0 305.45 239.5 298.95 229.9 L297.9 228.55 Q260.0 222.5 227.35 203.9 223.7 201.85 219.5 202.4 L175.05 209.05 Q155.05 212.25 138.7 224.7 134.7 227.75 130.15 230.0 118.3 235.85 107.6 226.9 90.1 222.25 72.9 220.4 70.9 220.15 68.55 220.9 64.0 222.3 60.0 224.15 57.5 224.95 55.6 223.3 44.8 210.95 56.7 201.85 59.85 199.45 63.45 197.7 67.35 195.75 71.85 196.0 L107.2 172.1 Q112.25 168.55 115.05 163.3 116.8 159.9 117.2 156.15 109.1 151.2 100.9 145.35 L98.25 143.1 Q77.3 137.9 91.7 126.15 L100.4 118.8 Q102.0 117.35 102.8 115.45 94.8 114.4 91.75 106.7 L91.1 105.35 Q74.5 101.2 56.55 103.75 52.1 104.4 51.6 100.0 50.7 93.3 57.9 92.5 51.2 78.95 68.65 79.3 81.6 79.45 93.3 74.65 104.65 70.0 116.95 73.5 102.8 66.7 90.5 58.15 88.95 57.1 90.4 55.5 96.9 48.15 108.1 46.9 120.9 45.35 131.75 38.4 138.65 33.9 144.5 28.8 146.65 26.9 149.9 25.9 169.7 20.3 181.2 3.7 L473.1 3.7 473.1 4.15 473.5 3.7 714.4 3.7 714.4 354.3 Q708.55 352.0 705.05 347.1 679.35 351.6 673.45 327.9 671.7 321.05 668.25 314.65 666.65 311.6 667.05 307.75 667.45 304.7 669.7 302.4 670.55 301.6 671.6 300.9 673.9 293.7 675.1 285.9 675.9 281.2 677.7 276.7 678.15 275.35 679.05 274.0 L680.95 271.35 Q683.45 255.05 684.5 238.4 684.9 232.7 683.85 227.35 682.4 219.75 681.7 212.15 680.3 199.35 683.3 187.1 689.6 161.5 698.1 137.2 704.8 117.85 704.55 98.25 701.45 94.25 700.55 89.3 700.0 86.7 698.9 84.5 L696.65 82.4 695.45 81.05 M669.5 352.95 L669.5 352.9 Q681.9 360.65 694.5 366.4 695.3 366.8 695.45 367.9 695.3 369.35 694.65 370.65 693.85 372.25 692.4 373.2 670.1 375.2 665.75 355.9 665.5 354.8 666.55 354.0 L669.5 352.95 M657.05 514.15 Q651.45 517.75 645.05 520.0 L643.9 522.1 104.25 522.1 Q104.7 520.0 106.15 517.6 113.05 505.7 126.65 501.05 136.1 497.85 144.8 492.65 158.1 484.8 169.1 474.1 179.35 464.15 192.1 459.6 203.5 441.5 206.7 419.1 207.9 410.3 207.6 401.1 207.45 397.5 206.3 394.3 187.75 392.95 172.3 382.95 168.15 380.3 164.55 376.7 154.5 366.65 138.3 363.35 131.05 361.85 124.3 358.55 89.6 362.3 73.9 331.35 54.25 318.3 74.7 302.65 82.15 296.9 91.35 294.0 105.2 275.6 130.1 272.95 139.75 270.65 144.95 278.15 L145.1 278.4 Q158.9 288.0 169.9 301.85 172.1 304.55 174.7 306.8 200.9 307.5 225.7 312.95 229.3 313.75 231.1 317.05 L234.25 321.7 Q264.8 318.4 294.65 321.7 299.5 322.25 303.35 325.6 L303.35 325.75 306.4 325.6 Q344.4 303.85 382.0 328.55 396.55 338.15 412.15 345.5 436.15 345.7 440.9 370.25 442.4 378.25 446.1 385.85 450.15 394.1 452.95 402.8 453.3 403.75 453.1 404.8 486.1 407.2 505.85 435.05 519.85 438.3 531.05 449.9 532.25 451.1 533.9 452.25 552.95 465.3 574.7 464.15 595.05 446.1 621.1 461.7 628.55 466.15 635.6 471.6 648.25 481.6 659.35 492.4 671.85 504.55 657.05 514.15 M592.4 91.35 Q604.0 86.9 602.25 74.95 601.75 72.0 599.6 70.8 579.7 60.1 555.05 63.2 L525.75 65.2 Q524.0 65.3 522.9 66.3 510.3 77.75 523.9 89.05 521.45 111.7 546.5 113.6 576.25 115.9 592.4 91.35 M613.85 27.1 Q611.9 30.8 614.5 33.6 624.0 44.15 639.6 40.0 646.15 38.25 644.0 31.9 639.35 18.4 621.9 22.0 616.55 22.15 613.85 27.1 M128.9 32.1 Q110.65 46.5 91.05 37.1 89.1 36.15 89.3 33.85 83.75 32.4 83.3 26.95 83.2 26.3 83.35 25.6 102.25 16.9 123.6 13.9 144.55 19.7 128.9 32.1 M90.15 69.1 Q83.5 74.15 79.2 65.9 79.1 64.7 79.9 63.9 L80.8 63.2 83.3 62.65 83.35 62.5 87.6 63.75 88.8 64.3 Q90.1 65.35 90.55 67.05 90.8 68.1 90.15 69.1 M85.6 89.75 L86.55 89.85 86.55 89.6 85.6 89.75 M73.2 37.5 Q73.85 38.3 73.7 39.35 71.35 44.4 66.25 47.45 58.25 52.1 50.15 49.9 L48.1 50.4 Q42.15 51.75 36.65 49.1 L34.55 48.1 33.35 48.5 32.1 48.55 30.0 48.15 28.8 47.6 Q27.2 46.25 27.75 44.3 30.1 35.35 40.7 35.05 L41.05 34.4 41.6 33.6 42.15 33.05 Q44.1 31.1 46.7 31.2 L46.7 31.1 Q64.3 26.4 73.2 37.5 M17.3 65.35 L16.95 64.8 Q17.9 58.65 25.2 58.7 L26.55 58.55 Q32.95 57.6 35.05 63.2 L35.3 63.85 Q28.5 74.95 17.3 65.35 M58.3 111.5 Q59.6 108.7 63.2 108.95 70.7 109.45 77.85 106.7 92.15 112.3 78.4 119.5 74.65 121.45 70.15 122.0 52.4 124.5 58.3 111.5 M15.75 157.75 Q16.25 157.05 16.9 156.65 21.35 153.5 26.55 152.95 39.2 149.85 43.7 158.5 L43.9 159.1 Q39.3 169.5 24.4 166.1 20.25 165.1 17.05 162.4 L15.75 161.2 15.6 160.5 15.5 159.85 15.6 158.5 15.75 157.75 M32.25 173.3 Q48.3 165.75 65.9 158.4 82.65 161.5 73.2 170.4 73.05 177.7 60.5 179.05 57.75 179.3 55.35 180.65 52.3 181.05 50.55 179.5 42.95 184.65 35.05 180.15 L33.9 178.8 32.25 176.7 32.1 176.1 32.1 174.7 32.25 173.3 M106.65 154.65 L107.35 155.2 108.0 156.65 108.5 158.0 Q108.55 159.05 108.15 160.1 L106.9 162.1 Q98.8 167.2 92.0 161.45 L91.7 160.0 Q91.45 158.65 92.0 157.3 96.5 153.45 102.55 153.35 104.8 153.3 106.65 154.65 M154.3 225.6 Q154.7 224.0 155.9 222.8 158.5 221.05 161.45 222.0 L163.45 222.55 Q170.15 220.25 176.7 220.0 195.2 222.15 182.1 234.9 177.3 239.5 170.3 239.75 164.95 239.9 161.7 235.6 152.3 234.15 154.3 225.6 M54.4 323.6 Q51.75 324.8 48.7 325.45 39.1 327.45 30.0 324.65 28.7 323.6 28.25 321.9 28.0 320.95 28.15 319.85 L28.7 318.55 29.5 317.1 Q41.6 313.1 54.0 312.55 67.3 317.9 54.4 323.6 M174.25 438.7 L174.5 439.45 Q170.0 449.35 158.9 446.25 156.8 444.3 156.9 441.45 L157.05 439.45 Q161.75 434.3 168.5 433.9 173.05 434.4 174.25 438.7 M191.6 422.5 Q182.3 431.75 181.5 418.95 181.3 415.75 183.85 413.7 190.65 408.25 199.7 406.65 213.7 413.3 198.65 420.5 195.35 422.0 191.6 422.5 M577.45 448.4 Q561.9 457.75 553.45 443.9 552.15 441.75 554.3 439.85 556.65 438.7 558.7 438.5 572.3 436.1 578.4 445.2 579.6 447.1 577.45 448.4" fill="#a48a60" fill-rule="evenodd" stroke="none"/>
    <path d="M653.9 28.8 L653.9 28.15 653.45 27.75 Q648.55 25.45 642.95 25.9 L641.6 25.85 Q632.3 24.25 623.05 23.85 622.55 24.15 622.3 24.65 L621.35 26.55 620.95 27.2 Q616.5 31.7 609.6 32.65 L602.15 34.1 Q599.5 34.7 597.6 36.65 597.85 39.45 596.55 42.1 589.85 56.0 571.85 54.5 L558.7 53.05 Q535.6 49.85 524.15 30.0 L520.65 27.6 Q516.25 24.25 514.8 19.5 513.3 14.8 513.45 10.1 513.5 6.4 514.95 3.7 L714.4 3.7 714.4 83.1 Q712.1 82.8 709.1 81.5 704.0 79.3 699.85 75.3 685.75 61.7 667.9 55.6 L667.2 56.3 664.8 59.1 Q660.95 65.05 654.4 61.6 643.35 55.75 649.6 45.6 650.95 43.45 653.05 41.9 L653.1 41.2 Q653.1 40.15 653.5 39.1 L653.75 38.5 654.15 37.1 654.1 36.4 653.6 34.3 653.45 33.7 Q653.1 32.65 653.3 31.6 L653.5 30.25 653.9 28.8 M714.4 154.5 L714.4 316.4 Q712.9 321.2 710.7 325.75 709.7 328.15 706.65 328.1 697.35 327.9 689.2 322.4 670.5 304.4 684.15 282.55 L684.65 281.85 Q685.7 260.1 685.7 237.9 685.7 219.35 682.3 201.45 679.9 188.8 686.5 178.8 691.45 160.65 706.3 152.95 707.75 152.25 708.9 152.1 712.1 152.95 714.4 154.5 M653.5 177.05 Q656.0 205.35 657.85 234.0 658.7 236.95 658.1 240.1 L656.8 245.05 654.9 250.5 655.7 254.65 Q655.9 255.7 656.4 256.7 L656.65 257.35 656.95 258.7 Q667.45 274.4 650.65 281.7 647.85 282.9 646.1 280.15 643.7 276.5 643.9 272.0 633.45 278.0 621.7 278.65 618.65 278.8 615.9 280.25 609.9 290.3 602.15 299.1 599.6 302.1 597.45 305.7 592.3 314.25 583.7 307.45 582.1 306.25 581.35 304.3 563.85 301.5 547.35 300.5 545.1 300.3 543.75 298.1 L539.7 291.05 Q527.75 287.75 518.65 276.8 516.3 274.0 512.9 272.0 L470.3 247.3 Q465.05 247.05 462.7 242.15 462.0 240.55 462.0 238.8 462.1 237.75 462.55 236.8 466.8 232.3 473.05 230.8 L476.25 229.9 Q491.6 212.5 515.45 212.1 518.65 212.0 521.9 210.95 537.7 206.1 544.55 193.1 552.65 177.75 567.6 168.1 574.9 163.35 576.0 154.25 576.55 149.2 580.1 144.9 L584.8 138.95 Q578.95 125.75 596.95 120.5 608.0 117.2 619.1 117.2 623.75 117.75 626.5 121.35 L626.95 122.1 Q648.9 121.2 650.7 143.2 L653.5 177.05 M506.0 39.1 Q507.35 36.7 510.15 36.7 L510.15 36.65 511.9 37.2 513.1 37.75 Q516.8 42.9 516.25 49.5 L516.1 51.5 515.85 52.25 515.7 52.9 Q515.5 53.2 515.45 53.6 512.65 56.7 509.2 54.25 505.7 48.4 505.6 41.2 505.5 40.15 506.0 39.1 M431.7 260.3 Q431.5 259.7 431.6 258.95 432.9 255.9 436.65 255.75 L438.7 255.5 Q457.1 254.1 463.1 267.75 L463.2 268.4 Q461.6 273.7 456.1 273.6 450.5 273.5 445.85 271.1 L445.85 272.5 Q445.85 274.0 445.2 275.3 L444.9 275.9 444.15 276.55 442.55 277.7 441.9 278.0 Q438.3 278.7 435.85 276.1 L434.8 274.8 433.75 269.45 Q432.9 264.9 431.7 260.3 M386.4 370.95 Q397.45 370.65 406.9 375.3 L407.6 375.75 409.6 376.0 Q412.0 376.15 413.75 377.75 L415.2 378.95 Q430.5 378.65 433.9 396.1 437.35 413.45 454.65 420.7 459.75 422.9 464.15 426.55 468.7 430.4 473.6 433.75 483.05 427.7 488.0 439.3 L494.55 454.4 494.65 456.15 Q494.65 458.55 495.1 460.95 495.6 463.35 495.2 465.75 496.0 467.1 497.75 467.7 501.35 468.95 502.9 472.4 L503.35 473.6 Q496.9 484.4 480.95 484.8 472.1 484.95 463.6 482.0 L462.25 482.5 458.7 483.6 456.4 484.0 Q453.75 487.9 449.2 486.9 442.8 485.45 437.35 481.6 427.3 480.1 417.05 477.7 413.1 476.7 409.6 474.8 398.5 476.7 391.5 467.6 388.4 463.5 386.65 458.9 386.25 457.75 386.55 456.55 L386.0 455.35 Q384.9 453.3 384.15 451.1 L382.8 446.4 Q370.15 438.55 369.9 421.6 369.75 409.85 371.05 398.25 371.1 397.35 371.6 396.4 371.05 394.95 370.9 393.35 370.3 389.1 370.8 384.95 371.1 382.55 371.75 380.15 L375.7 376.7 Q380.5 372.3 386.4 370.95 M510.4 287.35 Q511.3 285.7 513.05 284.9 514.95 283.9 516.55 283.7 533.3 285.45 528.7 304.15 525.35 317.85 517.45 305.7 515.6 302.8 514.65 299.05 513.7 294.7 510.4 291.5 L510.25 290.1 510.25 288.7 510.4 287.35 M550.7 318.3 Q550.5 319.45 549.85 320.4 L547.9 322.15 Q545.1 323.35 542.65 321.5 536.55 313.35 541.7 305.1 L542.9 303.6 543.85 303.3 545.85 302.8 545.85 302.7 Q549.85 303.1 551.1 306.65 L551.35 307.3 Q550.25 310.95 550.4 314.9 L550.7 318.3 M295.35 30.7 Q291.85 31.05 289.45 32.7 286.4 44.5 273.45 51.75 264.9 56.55 258.0 63.7 251.5 92.5 252.1 122.1 252.25 129.45 254.8 136.25 264.1 160.25 237.9 165.35 224.7 175.45 206.3 167.6 189.2 177.1 171.1 182.25 162.4 184.7 155.45 180.25 141.5 179.05 134.7 165.05 131.45 158.15 125.45 153.2 124.0 152.0 123.6 150.0 122.1 148.8 121.1 147.1 120.65 146.1 120.0 145.2 108.95 140.9 112.95 131.45 115.6 125.3 121.35 121.85 L121.85 119.75 Q121.9 118.7 122.25 117.7 L122.5 117.05 Q119.9 114.65 119.5 111.45 L119.35 107.35 Q119.35 106.7 119.5 106.0 104.0 90.95 121.1 79.6 127.3 75.5 132.8 71.2 134.55 69.85 135.5 68.0 133.1 60.15 140.65 55.7 146.55 52.1 152.7 48.8 147.75 40.5 153.3 32.5 156.65 27.6 160.9 31.85 163.05 34.0 162.8 37.1 166.65 35.6 171.7 36.9 L177.2 37.5 Q194.15 21.2 212.3 32.25 221.85 38.0 233.75 39.85 235.3 22.7 254.8 17.5 268.9 13.7 282.95 13.3 297.85 12.8 310.8 17.7 313.1 18.55 311.75 21.05 306.8 29.6 295.35 30.7 M210.15 22.65 L211.2 21.35 212.5 20.15 Q212.7 20.0 212.95 20.0 L214.3 19.85 214.3 19.7 Q221.5 22.15 218.25 29.05 L217.75 29.75 Q214.5 31.9 211.75 28.9 L210.4 24.65 Q210.15 23.7 210.15 22.65 M207.2 183.85 L206.7 183.2 Q210.15 168.55 225.5 175.85 246.8 175.9 268.1 173.6 275.45 160.15 291.3 157.3 306.9 160.1 301.7 176.5 298.7 186.0 289.6 189.6 292.55 204.5 274.95 204.55 L268.95 204.8 Q255.2 205.7 243.5 195.85 241.1 193.85 237.85 193.45 226.5 192.1 217.75 184.3 L215.05 185.2 Q213.9 185.6 212.95 186.15 L211.6 186.15 208.3 185.3 207.7 184.55 207.2 183.85 M95.05 87.75 L95.7 87.5 97.05 87.2 Q107.85 90.0 104.15 100.0 L103.7 100.7 Q100.1 102.95 96.4 100.5 95.1 99.35 94.3 97.85 93.6 96.3 92.25 95.05 91.6 93.35 91.9 91.6 92.25 89.35 94.1 88.15 L95.05 87.75" fill="#927a54" fill-rule="evenodd" stroke="none"/>
    <path d="M371.5 368.9 Q361.35 390.5 361.7 413.35 L361.85 438.0 Q361.75 445.3 357.45 451.2 347.5 464.65 331.35 471.5 313.75 478.95 296.1 470.95 294.4 470.15 292.15 470.55 276.95 486.65 261.3 473.3 250.4 464.1 236.65 472.8 232.95 475.2 228.9 473.05 216.5 466.5 209.3 453.6 204.1 444.4 211.2 436.5 216.65 430.4 218.95 423.75 222.1 414.55 223.2 404.95 216.1 389.9 203.85 380.1 198.25 375.5 190.9 375.05 183.35 374.55 177.85 369.45 L168.95 360.55 Q144.65 354.7 119.7 352.1 98.3 349.85 89.35 330.55 76.55 326.0 76.8 314.95 76.8 313.75 78.0 312.55 L80.0 310.8 Q84.25 302.0 96.55 299.5 106.4 297.6 112.8 290.8 119.1 284.1 127.2 280.95 142.5 282.0 151.3 296.1 157.6 306.3 167.35 313.75 186.15 315.5 203.9 319.5 206.55 320.1 209.05 321.75 219.9 328.95 231.5 334.9 238.65 338.5 246.55 337.3 274.4 333.05 302.15 333.75 314.0 334.1 323.7 327.5 329.45 323.6 336.8 323.6 355.9 323.6 368.0 338.25 379.45 352.15 371.5 368.9" fill="#b49a6e" fill-rule="evenodd" stroke="none"/>
    <path d="M652.65 72.9 L654.0 72.55 655.75 73.1 656.95 73.7 Q661.5 79.05 657.75 84.5 L656.25 85.85 Q653.75 86.55 651.9 84.9 650.5 83.5 649.75 81.6 L649.1 79.45 Q649.1 77.3 649.9 75.35 650.5 74.0 651.7 73.3 L652.65 72.9 M652.1 88.7 L652.15 88.55 Q662.1 94.4 654.55 104.1 L654.0 104.65 Q651.45 105.75 649.1 103.9 646.8 101.35 647.35 97.75 647.5 96.7 648.0 95.7 L647.7 94.3 647.5 92.25 Q647.85 90.95 648.9 90.15 L650.3 89.05 650.8 88.9 652.1 88.7 M637.45 60.3 L638.65 60.9 Q640.5 63.3 640.4 66.4 L640.25 68.4 Q637.5 75.75 631.3 71.85 630.25 68.25 630.95 64.25 631.1 63.2 631.5 62.25 632.9 59.85 635.7 59.85 L635.7 59.75 637.45 60.3 M636.5 84.1 L637.7 84.7 Q646.25 98.9 632.1 102.4 629.1 103.1 628.55 99.9 626.55 88.7 634.7 83.5 L636.5 84.1 M492.7 6.9 Q481.3 31.75 461.2 49.7 458.25 60.0 447.1 59.2 427.45 57.75 409.6 64.3 398.15 68.55 385.75 69.5 373.1 70.55 369.6 60.5 L368.5 59.75 365.1 58.1 Q361.35 56.65 358.15 54.3 351.5 55.6 345.2 54.25 337.85 52.55 339.2 45.05 340.15 39.75 338.7 34.65 L337.45 33.45 Q333.7 31.05 331.2 27.35 329.45 24.8 329.9 21.5 L330.5 17.45 Q328.8 15.75 326.3 15.35 320.15 14.25 318.25 8.65 317.3 5.85 318.0 3.7 L468.55 3.7 469.45 4.65 470.65 3.7 493.05 3.7 Q493.6 5.05 492.7 6.9 M287.1 61.45 Q286.1 55.6 288.3 49.6 288.65 48.7 289.45 48.1 L292.15 47.5 292.15 47.35 Q297.85 51.5 298.55 57.6 299.45 57.05 300.4 57.05 L303.1 56.9 303.1 56.7 304.65 56.9 Q303.2 50.15 305.5 43.1 305.75 42.3 306.4 41.7 306.8 41.45 307.3 41.3 L308.65 40.95 310.5 41.45 311.05 42.5 311.35 42.1 311.35 41.85 312.5 42.4 313.45 43.05 Q316.4 49.45 315.75 56.0 L322.25 54.9 322.25 51.7 322.4 49.7 Q322.65 48.55 323.35 47.7 L324.65 46.25 325.6 45.85 326.95 45.5 Q337.3 54.25 330.8 66.3 L331.1 66.8 330.0 67.75 329.9 67.85 329.3 68.4 328.95 68.55 Q323.75 71.85 318.8 69.1 312.9 71.3 304.9 70.7 300.4 70.4 296.5 68.8 L296.1 69.35 Q293.05 71.6 290.1 69.35 L289.35 67.9 290.3 65.9 290.1 65.3 Q289.2 62.65 287.1 61.45 M294.4 97.45 L295.85 96.15 296.55 95.85 298.55 95.2 300.4 95.75 Q300.95 96.0 301.5 96.4 304.3 100.9 306.25 105.9 306.65 106.95 306.55 108.1 L306.25 109.35 Q305.75 110.55 304.7 111.5 L303.6 112.0 301.1 112.65 301.05 113.75 Q303.9 114.95 305.1 118.4 L305.2 119.05 Q305.1 120.1 304.4 121.05 L303.1 122.5 Q297.7 124.1 294.5 119.3 294.0 117.9 294.4 116.65 L293.1 115.9 Q291.05 120.15 288.65 124.25 L287.85 125.45 287.85 125.7 Q283.45 131.1 278.5 129.1 L278.4 129.1 Q276.7 128.3 274.95 126.8 L276.0 125.1 Q272.4 116.4 282.8 108.1 L284.4 106.9 Q287.6 106.55 290.4 105.6 289.45 103.6 289.05 101.35 288.8 100.3 289.2 99.35 290.8 96.9 293.75 97.75 L294.4 97.45 M315.05 101.6 Q334.15 105.3 321.45 117.85 320.5 118.8 318.5 119.05 314.1 119.45 311.35 115.85 310.95 114.1 310.95 112.4 310.95 110.3 309.1 110.3 308.8 109.7 308.8 108.95 308.8 108.25 309.1 107.6 L309.75 106.9 310.5 106.25 310.7 104.9 Q311.05 103.6 312.1 102.8 L315.05 101.75 315.05 101.6 M312.3 122.25 Q314.8 121.9 315.9 124.1 L316.25 124.8 Q316.65 128.0 313.2 128.55 L312.3 128.65 Q309.75 128.5 309.2 126.1 L309.1 125.45 Q309.2 122.5 312.3 122.3 L312.3 122.25 M264.55 475.05 Q266.1 477.75 266.7 481.1 L267.3 483.2 Q272.8 485.85 278.25 488.7 L286.7 488.25 Q288.15 484.8 289.2 481.3 289.45 480.3 290.15 479.6 291.2 478.4 292.8 478.4 L293.6 478.4 Q294.65 478.15 295.2 477.1 L296.15 475.75 297.2 475.45 298.4 475.2 299.9 475.7 300.95 476.15 Q303.2 481.35 306.3 486.25 L312.4 485.3 Q326.4 478.1 337.85 492.0 L338.4 492.65 Q345.45 482.55 352.65 472.65 354.7 469.85 357.2 467.2 L359.9 466.3 360.0 466.15 Q361.9 466.3 363.1 467.85 L363.6 468.4 Q366.5 467.9 369.2 469.2 L369.75 469.85 370.55 470.95 Q387.35 470.4 392.8 488.4 393.9 492.0 395.6 495.3 409.3 487.35 421.05 476.8 422.95 475.05 425.35 476.95 432.15 482.65 436.95 489.85 443.45 487.35 450.9 487.35 455.85 481.9 463.05 484.8 L472.8 472.25 Q473.85 470.95 475.2 469.9 475.6 457.6 488.95 452.9 L491.9 452.1 Q507.45 465.75 525.5 478.4 L526.25 478.65 Q529.1 470.4 537.35 464.55 541.5 461.6 544.8 465.75 546.5 467.85 547.1 470.4 554.0 470.1 558.95 474.95 566.1 475.35 572.5 478.9 577.7 471.85 585.75 473.85 596.55 467.2 599.05 479.3 606.5 476.0 611.2 482.3 626.65 470.65 636.1 488.25 638.5 492.65 642.65 495.35 650.7 500.55 645.1 509.5 647.9 517.5 644.7 522.1 L145.9 522.1 Q160.7 503.1 183.2 489.75 L215.05 471.1 Q216.7 470.1 218.15 472.0 222.4 477.7 227.9 482.1 L230.4 482.1 Q238.0 476.7 247.1 476.1 257.7 463.2 264.55 475.05" fill="#7b6746" fill-rule="evenodd" stroke="none"/>
    <path d="M502.0 96.9 Q502.0 98.0 501.6 98.95 L500.3 100.95 499.7 101.7 Q501.75 102.55 502.95 104.4 503.6 105.35 503.85 106.5 503.9 107.9 503.3 109.2 L502.1 111.35 502.0 112.0 502.0 112.7 Q506.5 112.95 509.7 116.7 511.85 119.3 513.2 122.3 L513.05 123.7 512.95 125.05 Q529.05 126.95 544.4 131.3 546.55 131.9 546.4 134.65 545.85 136.55 544.5 138.0 543.35 139.1 541.85 139.5 L539.75 140.15 539.85 140.9 539.9 141.5 540.0 142.25 540.0 142.9 Q539.3 145.3 537.5 147.05 L534.0 150.1 534.0 150.5 538.5 154.1 Q539.35 154.9 539.75 156.0 L540.0 156.65 Q540.15 159.45 538.0 160.9 533.9 163.75 531.75 165.6 532.9 167.1 532.55 169.05 L532.25 170.4 531.6 171.7 531.05 172.5 Q533.05 173.45 536.7 176.95 538.15 178.3 538.15 180.5 537.75 182.0 536.8 183.2 L534.5 185.3 Q536.25 186.3 537.1 188.1 L537.85 190.1 537.9 190.8 Q531.2 199.3 516.65 199.7 L497.35 200.65 Q495.3 200.8 493.75 199.45 490.5 200.3 487.45 198.95 L485.75 197.85 Q479.9 197.75 474.7 200.15 471.35 201.7 468.8 204.1 468.15 206.55 466.4 208.3 L462.15 212.7 462.55 214.15 462.8 215.5 462.8 216.15 461.6 218.9 460.15 220.9 458.95 222.15 Q438.25 228.15 419.35 222.7 418.55 222.55 418.4 221.2 415.35 221.05 413.45 218.9 L412.5 217.5 412.25 216.9 Q404.0 219.7 399.2 213.6 396.8 210.65 399.2 207.5 399.85 196.3 414.25 195.05 416.9 194.8 419.3 193.75 422.5 180.95 438.55 178.4 440.8 178.1 441.05 176.15 436.8 174.9 434.7 168.9 433.2 164.1 438.4 163.1 441.05 162.65 442.0 161.05 441.6 159.7 441.85 158.25 442.0 157.1 442.7 156.25 L443.85 154.8 Q443.5 152.8 443.75 150.7 443.85 149.6 444.55 148.7 445.5 147.5 446.8 146.55 445.1 144.0 446.55 141.45 449.2 136.55 453.2 135.85 451.7 134.0 451.85 131.7 451.9 130.3 452.7 129.05 L454.8 126.25 Q454.15 124.55 454.5 122.8 454.55 122.1 454.9 121.45 L455.75 120.1 456.4 119.35 Q459.45 117.75 462.8 117.35 L462.8 117.05 Q464.55 111.9 470.9 112.65 L472.0 112.5 Q471.6 111.45 471.7 110.4 L471.85 109.05 472.0 108.3 Q470.65 106.15 471.2 103.6 472.1 99.75 475.85 98.0 475.6 97.05 475.5 96.0 L475.45 94.65 Q475.5 93.9 475.7 93.2 L476.65 91.9 478.15 90.5 480.9 89.9 480.9 89.75 Q494.25 89.1 501.6 96.3 L502.0 96.9 M436.3 86.3 Q436.65 86.8 436.5 87.5 442.0 91.45 438.55 97.3 436.7 100.5 434.0 101.9 435.5 104.15 434.95 106.7 434.65 107.85 434.0 108.8 437.35 111.85 436.3 116.25 435.5 119.75 433.5 121.85 434.8 123.45 435.2 125.3 435.45 126.25 435.35 127.35 428.25 136.8 415.7 140.4 415.5 153.05 399.9 155.9 398.55 156.15 397.35 156.9 L397.6 158.25 397.75 159.6 397.75 160.3 Q389.45 171.45 372.95 169.75 372.15 169.7 371.2 170.4 L371.75 172.5 371.9 174.5 Q377.6 188.65 359.3 190.65 344.4 192.3 329.5 190.15 321.7 189.1 324.3 182.0 326.0 177.5 330.5 176.3 328.1 172.7 329.75 168.0 331.05 164.5 331.1 161.9 322.4 162.3 317.6 154.95 L316.95 153.7 Q304.7 156.15 303.35 145.7 302.7 141.35 307.35 140.55 L323.1 137.2 Q326.95 131.7 333.2 129.2 L337.6 127.35 Q338.3 121.45 339.75 115.6 340.95 110.8 342.8 106.1 342.25 104.3 340.3 102.65 339.7 102.1 339.85 101.3 324.1 103.5 330.95 91.7 332.4 89.2 335.6 88.65 L359.3 84.1 Q367.35 75.05 382.5 75.85 388.5 76.15 393.9 74.9 397.05 74.7 399.1 77.05 L399.6 77.7 Q409.6 74.95 417.3 80.9 430.9 76.5 436.3 86.3" fill="#aa9064" fill-rule="evenodd" stroke="none"/>
    <path d="M669.75 69.85 L670.7 71.1 Q671.5 72.1 671.35 73.3 L671.05 74.55 Q670.65 75.75 669.75 76.7 665.45 79.35 662.65 75.3 661.85 73.6 662.4 71.85 662.7 70.65 663.85 69.85 L666.7 68.8 666.8 68.65 668.55 69.2 Q669.2 69.45 669.75 69.85 M627.35 73.7 Q632.15 77.6 626.0 77.5 L625.35 77.1 Q624.4 74.95 626.55 74.0 L627.35 73.7 M289.35 67.9 Q283.45 78.8 278.8 65.3 278.1 63.1 280.3 61.7 282.15 60.55 283.9 60.4 285.75 60.55 287.1 61.45 289.2 62.65 290.1 65.3 L290.3 65.9 289.35 67.9 M337.05 61.6 L339.75 62.15 341.2 62.7 342.3 64.1 Q342.95 65.05 343.2 66.15 343.35 67.6 342.7 68.9 342.15 70.1 341.2 70.95 336.8 73.5 332.95 70.25 331.9 69.05 331.85 67.5 331.75 66.15 332.0 64.8 333.6 61.75 337.05 61.7 L337.05 61.6 M327.7 94.8 Q327.5 95.45 327.45 96.15 327.2 97.3 326.5 98.25 320.15 101.7 315.5 95.2 L315.3 93.85 Q315.1 92.8 315.5 91.85 316.4 90.0 318.3 89.45 L320.55 88.8 Q325.5 89.6 327.45 94.1 L327.7 94.8 M274.8 100.1 Q276.0 100.65 277.2 101.35 L277.75 101.85 Q278.55 105.75 276.5 109.35 L275.45 110.8 Q272.55 112.1 270.9 109.45 270.5 108.5 270.4 107.45 270.25 106.4 270.4 105.3 L271.2 103.2 271.5 101.85 Q272.7 100.25 274.8 100.15 L274.8 100.1" fill="#927a54" fill-rule="evenodd" stroke="none"/>
    <path d="M325.6 385.2 Q334.8 393.75 330.5 403.1 L327.6 408.7 325.2 413.2 Q339.7 415.6 331.5 424.8 330.1 426.4 327.75 425.35 323.3 431.2 317.2 427.75 313.5 422.65 314.15 416.3 L314.55 414.55 Q319.7 405.85 326.95 398.4 326.3 394.25 323.85 390.55 L323.2 389.35 Q322.9 386.8 324.9 385.5 325.2 385.3 325.6 385.2 M118.4 295.2 Q127.1 298.95 129.7 307.5 L130.0 308.15 Q146.25 304.65 143.35 319.75 142.1 326.7 134.55 326.4 130.9 330.25 126.95 326.95 123.7 327.5 121.2 325.35 L120.9 324.7 120.3 323.7 119.75 322.95 Q118.3 322.95 116.65 324.8 L115.6 325.6 Q113.45 326.15 111.6 324.8 L111.05 325.3 Q110.3 326.1 109.2 326.4 L105.2 326.0 103.6 327.05 102.4 328.0 Q97.7 327.6 93.35 324.8 91.7 319.45 92.9 313.9 93.45 311.2 94.4 308.55 96.0 306.8 98.25 307.7 L98.95 307.75 Q102.25 304.4 106.95 303.35 107.5 299.7 110.9 298.55 L113.2 298.15 114.3 297.3 115.35 296.15 118.4 295.3 118.4 295.2 M278.4 388.65 L279.2 388.4 Q280.7 386.5 283.2 386.3 L284.0 386.15 Q286.55 377.2 293.6 373.35 299.75 375.05 298.55 381.75 L298.4 382.4 Q301.5 392.55 299.5 402.7 299.35 403.7 298.4 404.4 297.3 404.9 296.0 404.9 L294.4 404.8 Q305.6 410.0 304.65 424.8 304.25 430.65 300.8 434.8 297.75 436.15 295.2 434.15 288.15 435.75 282.4 431.6 270.0 431.2 264.95 417.6 263.85 414.65 264.25 411.2 264.4 410.15 264.95 409.35 264.55 408.5 264.5 407.6 264.5 406.3 264.95 405.2 L266.1 404.8 266.0 404.55 Q267.05 396.5 268.5 388.5 268.7 387.1 270.0 386.55 271.9 385.9 273.35 387.35 L273.75 388.0 274.15 388.65 274.4 389.2 278.4 388.65 M309.6 386.3 L309.6 386.15 311.2 386.55 Q312.3 387.2 312.7 388.3 L313.2 389.6 Q323.6 396.3 317.5 409.1 314.8 414.7 309.75 411.45 300.1 405.2 303.6 392.25 L304.15 389.35 Q305.9 386.15 309.6 386.3" fill="#b19778" fill-rule="evenodd" stroke="none"/>
    <path d="M711.7 18.3 L703.85 19.2 Q701.85 17.9 699.85 18.1 694.5 18.55 689.85 20.15 689.6 15.1 684.8 15.05 678.9 14.9 675.05 19.2 L674.0 15.1 Q670.5 12.95 667.6 16.3 666.25 17.9 665.85 20.15 M697.05 32.95 L696.55 30.7 688.0 30.95 Q681.2 26.5 675.9 32.95 675.7 27.35 669.75 27.6 666.25 28.0 664.95 31.1 M713.5 43.05 Q708.55 41.3 703.85 40.55 700.55 40.8 697.9 43.05 L693.5 38.7 686.95 41.2 M658.55 12.8 Q652.8 12.4 648.4 8.95 L647.7 8.5 641.05 9.5 Q638.15 7.75 634.9 6.9 630.7 6.1 629.3 10.1 M663.1 43.05 L664.1 36.65 M660.4 50.3 L654.5 46.1 652.5 47.9 Q650.95 49.5 652.15 51.3 M696.1 50.3 Q693.75 45.9 688.7 47.35 L687.1 47.5 Q684.9 47.5 682.65 46.55 681.45 46.0 680.15 45.9 L676.9 48.5 M656.7 28.4 L655.85 24.7 M684.3 63.3 L685.05 59.75 684.15 58.55 M654.9 54.95 L655.85 57.7 M662.25 81.5 L658.55 77.85 659.5 83.35 M658.55 94.3 Q654.5 94.0 652.65 89.9 L652.15 88.8 645.75 93.45 M649.45 79.7 L649.45 85.1 M714.4 351.85 Q709.1 352.1 707.2 347.35 706.15 344.95 704.1 343.85 L697.45 345.05 Q694.0 344.15 690.55 344.4 686.1 343.7 681.5 344.4 679.2 338.5 676.55 332.95 675.35 330.55 674.95 327.9 L674.25 323.35 Q673.2 316.8 667.7 312.8 670.15 306.55 672.25 299.85 673.75 295.1 675.75 290.5 682.4 275.7 681.85 259.05 L681.85 251.9 681.75 248.8 Q681.2 241.7 680.8 234.4 L679.9 224.4 Q679.3 219.1 677.35 214.3 676.7 212.55 676.7 210.8 676.55 199.45 679.3 188.55 680.1 185.5 682.1 183.2 688.15 176.4 688.4 166.95 688.5 165.3 689.45 164.0 693.9 157.9 696.0 150.95 699.7 138.7 702.9 126.5 706.5 112.65 703.05 98.65 700.3 87.35 693.85 77.45 691.5 73.85 687.2 74.65 L682.0 83.1 679.9 86.3 Q677.45 90.0 674.0 93.6 L671.1 96.4 Q667.75 99.75 667.3 104.4 665.5 119.6 669.5 134.15 670.0 136.0 671.2 137.6 L678.1 147.6 Q680.7 151.6 678.8 156.15 673.7 168.4 670.8 181.5 668.0 194.0 671.2 206.15 677.5 230.1 676.4 254.65 676.25 257.45 675.05 259.7 667.2 274.7 663.6 291.35 L662.7 296.65 Q661.9 303.45 656.15 306.7 653.6 299.1 652.55 291.3 652.4 290.0 651.45 288.95 649.6 286.9 647.3 285.5 645.75 284.65 644.7 283.1 640.7 277.35 633.75 279.9 632.55 285.75 626.55 285.9 L625.2 286.4 Q622.7 291.45 617.9 294.55 L614.65 296.7 Q610.55 299.75 609.45 304.95 L606.3 319.2 Q606.0 320.3 604.95 321.3 597.5 327.7 587.5 325.9 L580.15 325.5 Q573.85 325.9 569.9 330.3 567.5 333.1 567.05 337.05 552.1 336.7 539.5 328.65 530.7 322.9 521.3 318.3 510.95 313.2 500.4 308.55 494.0 305.85 491.75 299.3 L485.85 282.65 484.8 280.9 Q482.3 277.9 479.3 275.75 477.2 274.25 474.5 273.85 L473.75 274.0 Q468.95 279.6 461.45 279.6 L452.1 278.9 446.0 279.85 Q442.9 279.75 439.7 278.4 439.1 284.95 432.4 286.1 427.85 286.55 425.6 282.25 422.9 276.95 420.9 271.3 419.9 268.5 419.5 265.6 419.05 261.75 418.15 258.15 L408.15 256.7 Q407.5 259.6 405.05 260.5 402.4 261.45 400.15 263.1 398.7 264.3 396.7 264.25 L392.4 263.35 Q387.9 262.0 383.5 262.5 L382.55 263.1 382.9 263.75 M646.65 79.7 Q652.2 76.95 657.7 74.15 L658.55 77.85 M714.4 58.55 L709.85 59.5 709.05 54.4 Q708.25 53.5 707.1 53.9 704.95 54.95 703.75 57.1 L703.35 58.15 704.3 59.5 M698.9 72.3 L697.9 64.1 M689.7 62.25 Q690.3 59.7 689.35 57.45 689.3 57.3 688.8 57.7 M707.1 78.7 L707.1 72.3 M674.15 52.15 L674.15 47.6 M698.0 125.45 L692.55 125.3 Q688.25 121.9 684.25 125.45 M694.3 106.25 Q690.0 109.75 684.95 107.45 L684.3 107.35 Q682.9 108.3 681.1 107.9 679.05 107.2 678.0 105.7 L674.15 106.25 M688.8 136.5 Q684.1 134.0 679.45 135.45 678.55 135.85 677.85 136.5 M650.3 192.3 L649.45 183.2 M708.0 191.45 L706.15 186.8 698.9 189.85 Q693.6 185.7 687.45 188.15 686.0 188.7 685.6 190.1 L685.1 192.3 M654.0 178.55 L653.1 168.5 M714.4 164.8 Q711.1 163.45 708.8 160.4 L708.0 159.35 703.45 166.65 M712.55 174.95 Q709.6 171.85 705.7 171.3 L700.55 172.4 698.7 172.25 697.45 170.95 693.7 171.35 692.5 174.0 M656.7 100.7 L655.85 95.2 M651.3 92.5 L650.3 101.7 M714.4 223.45 Q712.65 221.9 710.25 222.7 L708.0 223.45 Q705.5 220.3 701.3 221.35 L699.75 222.1 698.9 225.3 M691.5 218.9 L692.5 213.35 M712.55 207.9 L707.7 203.7 701.2 205.85 693.05 201.7 691.5 205.1 M711.7 245.45 L710.1 245.05 707.2 242.65 Q703.1 245.5 698.7 243.05 694.15 240.55 689.7 243.05 L688.8 246.4 M711.7 234.5 L710.65 231.35 Q707.2 230.0 703.3 230.9 702.25 231.3 701.3 230.7 697.9 228.9 694.1 230.15 691.2 231.3 690.65 234.5 M686.0 212.5 Q684.5 208.65 685.35 204.55 685.6 203.45 686.0 202.4 M657.7 208.8 L654.7 205.3 645.75 207.9 Q643.9 201.5 637.7 202.55 636.25 202.1 634.95 202.8 631.85 204.55 632.0 207.9 M661.35 225.3 L659.5 218.0 M654.0 236.3 L654.0 222.55 M659.5 272.0 Q659.85 269.85 658.65 267.9 657.45 266.0 655.45 265.6 653.35 265.2 651.7 266.55 649.9 267.85 649.45 270.15 M653.1 280.25 L654.0 272.95 M713.5 272.0 Q708.7 273.9 704.9 270.5 704.0 269.75 702.7 269.6 699.5 269.9 696.95 271.2 696.0 271.7 694.95 271.2 693.6 270.8 692.5 269.9 L688.15 269.75 686.15 273.85 684.15 273.85 M712.55 289.45 Q708.15 291.85 705.35 287.6 L705.1 287.35 693.35 291.3 Q693.2 287.35 689.7 286.65 685.9 286.65 685.2 290.25 L685.1 291.3 M713.5 258.25 Q710.4 258.5 708.7 255.6 L708.0 254.9 702.5 257.35 Q701.3 256.9 700.25 255.1 699.35 253.75 697.9 253.7 691.9 253.35 688.1 257.75 L688.8 260.1 M712.55 282.1 L710.8 278.4 704.8 281.45 698.4 278.7 697.05 281.2 M713.5 304.95 L708.95 305.9 708.1 303.2 Q702.55 302.55 699.35 307.75 697.75 302.8 692.55 302.9 L690.65 306.8 M707.1 329.7 L706.15 321.45 M696.1 325.1 L694.25 317.85 M686.95 317.85 L686.95 308.65 M667.75 356.25 L667.45 357.5 Q672.1 356.95 676.9 357.35 678.7 357.85 680.3 358.9 685.1 361.85 690.7 361.75 694.65 361.7 698.0 363.6 684.9 373.75 670.7 365.1 666.15 362.25 667.45 357.5 L665.05 358.1 M682.4 304.1 L682.4 294.9 M673.2 415.85 Q668.15 420.55 661.3 421.1 L660.5 420.95 657.6 417.7 Q653.05 424.5 645.1 421.3 641.35 419.85 641.1 415.85 640.25 419.75 636.0 420.8 629.7 422.55 622.95 422.4 621.2 422.4 620.1 421.3 M644.9 521.1 Q646.7 520.65 646.15 518.25 644.8 512.1 649.1 508.25 650.25 507.2 651.85 506.7 655.2 506.8 658.65 505.7 662.7 504.25 662.7 499.75 662.7 498.55 661.9 497.5 660.9 496.25 658.9 496.1 L646.1 494.5 Q646.4 492.4 645.75 489.9 L644.5 486.1 Q643.5 483.75 641.9 481.7 640.65 480.0 638.5 480.25 631.7 480.55 627.85 474.9 L624.5 469.9 Q622.0 466.0 617.85 464.9 L612.9 464.15 Q606.15 462.95 600.1 459.7 597.75 458.55 595.3 457.9 586.8 458.1 580.55 464.3 579.6 465.35 578.1 465.85 574.95 467.05 571.6 466.25 L557.9 465.2 Q542.1 465.05 531.1 453.6 L527.1 449.85 Q524.25 447.05 520.5 446.25 511.1 444.0 503.85 437.85 L495.3 430.9 Q478.1 416.95 457.1 409.9 L448.8 407.3 Q441.45 405.5 435.75 400.7 435.2 388.9 433.75 377.05 433.05 370.55 428.65 366.1 426.5 363.85 423.5 362.7 421.2 362.1 420.65 359.7 420.0 357.05 420.9 354.4 421.7 352.25 420.5 350.15 419.2 348.25 416.8 348.25 396.9 347.5 379.05 338.65 377.05 337.5 375.5 335.75 373.35 333.1 371.7 330.25 370.3 327.7 367.9 326.1 366.65 325.1 364.95 324.7 362.8 324.15 360.7 323.1 354.95 320.15 348.3 319.1 L344.4 318.9 Q337.5 316.3 330.25 318.5 326.3 319.6 322.95 322.0 318.65 325.05 313.75 327.3 301.75 332.5 289.9 327.35 287.5 326.4 284.9 326.25 269.05 327.5 253.6 331.1 248.95 332.3 244.15 332.8 236.7 333.9 231.1 330.15 L226.15 326.95 Q223.75 325.35 222.0 323.05 L220.4 320.5 Q217.9 315.6 211.9 314.25 207.6 313.1 203.3 312.5 201.85 312.25 200.5 311.5 L199.75 311.2 181.2 312.5 177.85 311.1 Q169.2 307.7 162.25 301.2 158.55 297.75 157.35 292.95 154.9 283.1 145.6 278.55 142.65 277.2 139.7 276.1 136.8 274.95 133.6 275.5 L130.55 274.7 Q125.2 272.65 120.8 276.3 113.9 282.0 105.45 283.6 104.3 283.9 103.6 284.9 L97.75 292.15 Q96.5 293.7 94.65 294.55 91.05 296.4 87.05 296.4 80.7 296.3 77.45 302.1 76.55 303.7 74.95 304.55 L70.5 307.05 Q69.45 307.6 68.95 308.7 67.75 311.35 66.9 314.15 M638.4 23.75 Q639.35 20.65 638.15 18.15 L637.5 17.35 M619.2 21.05 L618.25 17.35 612.4 19.85 605.9 18.0 601.75 23.75 M626.5 21.05 L626.5 15.5 M622.9 26.55 L619.3 27.2 611.6 31.35 Q612.8 36.9 619.3 37.75 L620.1 37.85 641.9 36.55 644.4 35.9 Q647.6 34.55 647.5 30.4 644.4 27.7 640.9 26.25 634.65 23.6 627.2 24.95 622.9 25.6 619.3 27.2 M638.4 31.1 L637.7 30.5 Q635.1 30.4 632.5 32.15 631.9 32.5 631.1 31.9 627.45 29.7 622.9 31.7 621.2 32.4 621.9 31.1 M606.3 13.7 L605.35 11.6 Q600.25 8.0 595.45 12.0 594.15 13.1 592.7 12.5 586.95 9.6 582.55 14.65 578.5 10.4 572.55 10.15 569.05 10.95 568.8 14.65 M588.95 21.9 L584.5 19.5 577.9 22.9 Q576.4 19.35 572.95 20.15 570.8 20.5 570.65 22.9 M582.55 48.5 L582.55 40.25 M599.05 35.7 L593.7 30.55 588.95 33.85 Q588.0 32.5 586.65 31.6 L582.7 31.45 582.1 31.85 580.7 34.8 M606.3 32.0 L605.45 27.45 M593.5 49.45 L593.5 43.05 M503.75 6.4 Q500.7 23.85 488.25 35.85 L487.85 36.0 Q489.6 36.9 489.6 38.9 489.7 45.9 490.8 53.1 491.7 59.2 492.9 65.3 496.0 80.55 518.9 100.5 L518.7 99.9 Q523.3 92.4 520.3 85.45 519.3 83.3 517.6 81.1 L516.95 80.3 515.9 78.9 Q515.45 72.1 520.4 67.7 521.6 66.65 523.05 66.25 L523.1 66.15 527.5 65.2 532.15 64.5 543.5 64.3 550.25 64.0 Q554.0 63.9 557.3 62.95 L558.9 62.4 Q564.65 60.3 570.8 61.35 574.4 62.15 577.9 63.45 581.05 64.55 584.1 66.1 585.35 66.8 587.1 66.7 L589.85 66.5 Q596.4 66.3 601.75 70.1 602.9 70.95 603.45 72.3 605.85 77.75 602.9 82.65 599.75 87.7 594.5 90.65 M592.65 78.7 Q588.8 80.0 584.65 79.3 L581.75 79.35 578.0 80.55 M520.25 101.6 L518.9 100.5 Q520.0 103.6 522.65 105.75 530.4 112.1 540.1 114.55 L546.55 115.7 554.65 116.4 Q565.7 117.9 575.6 112.65 577.7 111.6 579.05 109.75 581.9 105.7 584.9 102.1 585.85 100.9 587.2 100.3 591.45 98.55 595.75 97.1 L596.3 93.45 M632.0 64.1 L632.95 70.5 M639.35 71.45 L639.35 65.9 M639.35 65.05 Q636.5 61.05 632.1 63.45 L629.3 65.05 M639.35 97.05 L638.3 89.6 Q635.45 87.2 632.1 89.45 630.8 90.4 630.55 91.75 629.9 94.8 630.15 98.0 M640.25 87.9 Q636.15 82.7 630.25 86.25 L627.45 87.9 M570.65 51.3 L570.65 44.9 M562.65 23.2 L560.55 21.35 552.1 23.9 Q550.1 21.5 546.8 21.5 L546.25 21.75 544.95 25.6 M540.4 20.15 Q537.05 15.3 530.95 13.5 L530.25 13.45 526.8 17.75 524.5 15.05 523.35 14.95 Q519.5 16.15 518.65 20.0 L518.4 21.05 M537.7 44.9 L537.7 40.25 M573.35 38.5 Q571.2 33.9 566.65 35.35 561.85 37.2 556.7 35.9 554.9 35.7 553.45 36.7 L550.5 39.35 Q548.55 33.85 543.05 35.2 541.6 35.5 540.4 36.65 M527.6 38.5 L526.65 31.1 M491.3 3.7 Q492.5 6.95 492.65 10.5 492.7 13.35 490.8 15.45 486.25 20.65 483.35 26.9 L478.5 36.95 473.75 45.6 472.1 47.75 Q459.85 59.6 455.3 76.0 454.4 79.2 453.85 82.5 L451.2 97.85 451.6 97.9 451.75 97.9 451.35 98.0 451.05 98.4 451.05 98.1 450.9 98.1 Q450.1 104.15 448.5 110.0 446.0 118.95 441.6 127.3 439.45 131.35 436.25 134.9 426.65 145.5 415.85 154.8 L411.1 158.7 Q404.95 163.75 399.6 169.7 395.1 174.65 391.75 180.25 L391.5 180.55 Q386.5 188.9 383.85 198.8 L381.85 205.7 379.05 214.8 Q376.8 222.3 374.7 229.9 374.0 232.65 372.5 234.8 L371.2 236.9 370.3 238.4 368.15 241.9 Q365.85 245.35 363.1 248.5 357.05 255.1 348.9 259.7 L345.05 261.45 343.6 262.0 338.95 258.15 Q331.1 254.25 325.5 248.25 324.0 246.7 322.95 244.8 322.25 243.45 320.5 243.05 L320.25 242.95 Q318.0 242.25 316.5 240.5 L314.4 238.7 312.5 237.9 305.3 237.1 Q301.6 231.3 299.05 224.7 298.7 224.0 297.9 223.7 294.1 222.1 289.5 222.25 276.95 221.35 265.6 216.3 262.5 215.05 258.95 214.5 251.45 212.9 248.25 205.9 247.35 204.1 245.35 203.45 239.45 201.9 233.75 201.05 L228.15 199.6 Q224.0 198.4 221.2 195.2 220.55 194.55 219.5 194.7 208.5 198.0 197.75 202.15 196.1 202.9 194.25 202.9 L167.1 204.3 Q165.75 208.25 162.8 210.4 160.5 212.1 157.1 212.7 L155.05 213.05 Q146.5 212.55 140.1 218.7 136.15 222.55 131.35 225.1 129.6 225.9 128.15 225.45 120.25 223.3 112.3 226.8 L109.2 226.65 Q98.25 220.55 86.55 217.3 L85.7 217.05 80.3 215.6 73.5 217.3 65.45 219.6 Q57.6 221.5 51.6 216.1 L53.3 208.1 Q54.7 205.7 57.6 204.1 L84.3 189.45 Q85.45 188.8 86.55 188.3 91.1 185.9 96.0 184.1 100.8 182.15 105.2 179.45 105.45 173.2 111.2 171.5 113.35 171.05 114.9 169.85 L116.8 168.3 Q120.1 166.3 121.1 162.25 121.7 159.85 122.65 157.6 L120.65 148.0 Q116.15 147.05 111.35 148.0 L105.6 146.7 107.05 143.7 87.05 138.3 Q92.55 130.4 101.05 124.8 104.1 122.9 106.55 120.1 108.65 117.85 109.9 115.35 L96.0 110.8 95.3 107.1 Q90.5 107.5 86.55 104.5 L86.25 104.15 Q84.7 102.95 82.95 102.25 76.9 99.5 70.65 100.5 65.9 100.5 61.45 101.7 55.75 103.1 53.1 98.0 58.4 94.3 64.95 93.3 L66.15 92.1 Q68.4 88.1 64.65 86.4 63.1 85.85 61.45 85.9 58.1 86.15 57.9 82.7 67.6 76.1 78.95 79.7 L83.9 79.5 86.55 78.7 92.0 76.5 Q94.5 75.45 97.2 75.75 103.35 77.3 109.5 77.7 114.1 76.8 118.3 75.2 119.75 74.7 120.1 73.45 120.4 72.3 120.3 71.2 116.8 67.45 111.75 65.75 111.1 65.7 110.7 65.05 108.3 61.5 103.85 60.4 99.75 59.35 95.3 59.45 93.1 59.85 90.95 58.95 89.2 58.4 89.75 56.15 90.3 54.1 92.65 53.35 105.6 50.3 118.95 48.5 119.7 48.7 120.25 48.25 126.65 42.15 135.6 41.1 137.45 40.9 139.3 41.75 142.4 35.7 145.05 29.5 145.7 28.1 147.3 27.2 150.1 25.6 153.35 26.1 158.4 26.0 162.8 23.9 L163.75 23.45 Q166.8 21.75 170.65 21.6 172.3 19.7 172.7 17.05 172.9 15.9 173.85 15.2 L176.1 13.9 Q181.7 11.2 181.35 4.55 M515.7 45.75 Q512.9 42.1 508.9 43.35 507.9 43.6 508.3 44.9 M512.0 54.0 L512.9 50.3 M560.55 74.15 Q558.8 77.7 555.3 76.4 553.7 75.75 551.9 75.7 545.7 79.9 540.15 74.8 534.95 78.65 528.5 77.85 M573.45 92.5 Q568.5 95.35 564.0 92.25 563.35 91.85 562.55 92.25 L559.45 94.0 Q556.65 96.0 553.3 95.2 M547.75 50.3 L546.8 44.9 M560.55 54.0 L559.6 47.6 M544.1 102.55 L542.3 103.75 534.15 100.95 528.5 103.45 M489.1 162.1 L488.15 164.9 M521.1 192.3 L521.1 188.65 M514.7 191.45 L514.7 187.75 M510.15 189.6 L509.3 185.9 M588.95 188.65 Q586.95 186.8 584.65 186.25 580.9 185.2 576.8 185.3 L569.6 184.65 Q567.5 184.4 565.5 185.45 L563.2 186.55 Q555.7 183.2 549.05 187.75 546.9 189.35 545.9 192.3 M650.3 144.7 Q643.35 145.5 636.55 143.6 634.95 143.35 633.3 144.0 L629.6 145.35 626.5 142.3 620.1 145.6 M643.9 130.95 L637.45 126.3 Q636.15 125.35 634.55 125.9 632.5 126.25 630.5 127.3 628.1 128.4 625.45 127.35 624.1 126.65 622.55 127.1 620.7 127.35 619.1 128.25 613.75 130.65 610.95 125.45 L605.45 130.0 603.6 123.6 594.5 131.85 593.5 125.45 Q587.45 127.5 586.25 133.7 M600.9 145.6 Q597.75 143.45 594.0 141.45 591.3 140.1 588.9 141.45 586.8 142.7 585.3 144.7 582.0 140.25 578.1 144.65 577.05 145.85 577.05 147.45 M608.4 154.55 Q602.9 148.9 597.35 153.6 L596.3 154.8 Q593.7 151.85 590.0 152.8 588.95 153.05 588.1 153.6 L587.1 155.7 M598.15 167.6 Q596.55 166.4 594.95 166.55 592.55 166.15 590.15 167.3 588.15 168.25 586.25 169.45 584.1 164.8 579.85 163.9 576.8 163.85 575.7 166.65 L575.2 168.5 M644.9 184.95 Q639.9 179.6 632.5 180.55 630.3 181.05 628.1 180.55 L619.2 180.9 Q613.3 177.05 606.8 181.75 604.65 183.3 604.55 185.9 M612.8 198.7 L609.1 194.15 602.7 199.7 Q601.2 196.8 598.5 195.9 595.35 195.05 593.1 197.6 591.5 199.3 591.7 201.5 M644.9 170.3 L641.75 165.2 634.4 164.3 Q631.6 163.85 629.05 162.4 623.5 159.75 620.1 164.9 M487.3 13.7 L482.3 10.8 Q475.3 13.3 471.7 20.15 M468.95 14.65 L459.75 4.55 446.95 16.5 M472.65 33.85 L466.25 26.55 452.5 38.5 M453.35 32.95 Q445.3 30.0 440.3 22.25 L439.05 20.3 425.9 35.7 M432.3 12.8 L424.8 7.05 Q417.45 11.7 412.15 19.2 M432.3 46.7 Q426.3 42.7 420.0 43.7 416.65 43.75 413.7 45.5 410.65 47.45 408.5 50.3 M415.85 35.7 L406.65 22.9 393.85 36.65 M417.7 65.9 L418.65 69.6 M421.35 67.75 L421.35 70.5 M382.55 263.1 Q380.95 269.6 374.55 267.75 372.25 267.05 370.3 268.65 369.45 269.45 368.4 269.9 358.95 270.15 349.85 268.55 L356.8 263.3 Q369.7 253.35 376.5 238.15 L382.25 225.05 Q384.8 218.9 385.9 212.25 L386.7 207.85 Q387.9 200.95 389.5 194.25 390.5 190.0 392.3 186.0 396.15 177.7 402.5 171.05 407.45 165.85 414.0 162.7 L416.15 161.7 425.75 156.5 429.85 151.3 432.1 148.65 Q442.55 138.8 449.5 126.25 L453.3 119.3 Q456.4 113.1 456.9 106.25 457.3 100.3 458.25 94.5 461.05 78.1 467.75 62.7 L468.3 61.45 Q470.4 56.8 474.4 53.6 L474.9 53.1 Q483.9 46.55 487.85 36.0 M451.2 97.85 L451.1 98.1 451.35 98.0 451.6 97.9 M451.05 98.1 L450.95 97.85 450.9 98.1 448.65 98.7 Q446.0 101.9 442.8 104.3 438.65 107.6 433.2 108.9 418.4 112.0 405.75 120.0 M451.05 98.1 L451.1 98.1 451.05 98.4 M451.2 97.85 L450.95 97.85 M457.9 54.0 L448.95 48.3 437.85 54.0 M398.4 14.65 L389.3 5.45 377.35 19.2 M398.4 42.1 Q392.8 38.15 389.35 32.15 L388.3 30.25 370.95 43.9 M376.4 31.1 L369.1 17.35 354.5 34.8 355.85 37.35 Q360.3 45.5 369.1 48.5 M358.15 17.35 Q352.8 12.95 350.4 6.55 L349.85 4.55 331.5 21.9 M324.25 48.5 L323.7 46.0 321.1 45.3 321.1 54.0 321.1 54.1 323.35 70.7 332.55 69.6 331.45 45.2 328.9 44.9 327.75 47.05 324.25 48.5 M342.55 68.65 L340.55 63.5 337.9 63.7 337.5 62.65 337.2 61.6 Q336.65 61.1 336.0 61.1 335.35 60.9 334.65 61.1 L333.45 63.2 M327.9 56.8 L327.05 53.1 M341.7 69.6 L332.55 69.6 M397.5 61.35 L386.3 53.6 Q377.7 57.45 372.8 65.05 M373.75 91.6 L373.75 94.3 M367.5 92.4 L368.25 96.15 M354.5 34.8 L340.7 51.3 M367.3 115.35 L365.45 120.0 M399.35 141.05 L397.5 142.9 M392.0 139.2 L392.95 142.9 M359.9 116.3 Q359.9 117.85 360.5 118.95 360.95 120.0 361.75 120.0 M328.9 117.2 L325.1 102.1 Q318.15 101.3 311.85 104.55 310.7 105.05 310.25 106.15 309.1 108.7 309.75 111.9 L310.55 116.3 M343.45 178.55 L340.7 181.35 M336.3 180.3 L337.05 181.35 M425.75 156.5 Q428.25 161.05 427.6 166.7 427.3 170.1 426.5 173.45 424.3 182.4 426.65 191.5 L427.9 198.8 Q428.8 206.1 433.3 211.5 M476.25 157.5 L477.2 161.2 M482.7 152.95 L482.7 160.25 M486.4 234.5 Q485.35 230.9 482.5 228.95 480.5 227.6 478.5 228.7 L471.75 232.65 Q467.2 228.4 462.5 233.45 460.8 235.2 460.3 237.3 L460.7 238.15 M444.25 261.9 Q442.15 255.75 436.0 256.9 431.45 257.9 430.5 262.9 M439.7 276.55 L437.85 268.3 M481.85 258.25 L480.9 250.95 M459.85 262.9 Q455.45 257.35 448.8 260.9 446.1 262.25 444.25 264.7 M452.5 272.95 L451.6 269.3 M466.25 250.0 L465.3 243.6 M472.65 250.95 L470.8 245.45 M312.5 237.9 L324.3 232.7 Q326.5 231.7 328.9 231.2 343.85 231.05 358.15 226.95 L362.9 225.7 Q369.3 223.75 373.85 218.65 376.15 216.0 378.7 213.5 379.5 212.65 378.3 212.5 M332.5 252.8 Q339.9 246.55 349.9 246.5 359.05 245.3 365.5 239.05 L366.4 238.15 M371.2 236.9 L365.5 239.05 M338.95 258.15 L345.35 248.15 M363.7 258.25 L364.55 269.3 M382.55 263.1 L376.5 238.15 M409.45 302.25 L400.65 303.6 Q398.95 303.9 397.9 302.15 L396.55 299.5 Q393.7 304.1 388.25 304.1 385.75 303.5 384.8 301.3 384.0 299.7 382.5 299.35 374.8 304.4 365.45 303.1 M328.8 344.8 L330.4 344.8 331.2 344.8 M356.7 346.8 L355.9 347.05 356.0 352.0 Q361.2 351.6 361.2 346.4 361.2 345.6 360.8 344.8 M356.0 354.4 L356.0 353.6 356.0 352.0 M341.6 358.4 L344.0 358.4 344.8 358.4 M301.6 387.2 Q313.45 384.95 325.5 385.9 326.0 386.0 326.55 387.1 329.9 393.2 331.7 399.3 332.0 400.4 331.6 401.45 330.4 404.4 328.55 407.05 L324.95 412.1 Q324.4 412.8 324.0 413.6 M404.8 360.0 Q404.4 359.2 404.4 358.4 404.4 357.6 404.8 356.8 M401.6 360.8 L401.35 357.7 400.8 356.0 M379.2 394.4 L379.2 395.2 379.2 398.4 M372.8 379.2 Q373.35 372.7 378.9 374.1 380.4 374.4 381.85 375.85 384.4 373.05 387.5 372.25 L389.7 372.55 391.05 372.5 Q393.6 371.2 396.1 371.05 398.8 370.8 401.3 372.5 402.4 373.2 403.2 374.4 M385.6 389.6 Q384.55 384.8 387.9 383.35 389.2 382.8 390.65 384.5 391.6 385.6 392.0 387.2 395.3 382.8 400.15 382.1 400.8 382.0 401.9 382.7 403.2 383.6 404.65 383.3 L408.95 382.25 Q410.0 382.0 410.95 382.7 L415.2 386.4 M351.2 343.2 Q351.1 347.85 355.9 347.05 L355.2 339.2 M492.5 347.7 Q486.5 351.85 479.3 349.9 475.5 348.9 471.5 350.0 464.5 352.15 461.6 345.3 454.55 352.65 444.4 351.85 L443.3 350.8 M421.3 394.5 Q421.6 392.0 423.3 390.95 426.0 389.2 428.1 390.8 429.6 392.0 429.2 395.1 M416.0 383.2 Q418.1 378.0 423.9 378.95 425.2 379.2 426.4 380.0 M421.6 383.2 L421.6 386.4 421.6 389.6 M641.2 224.4 L639.35 218.9 630.7 222.3 Q626.9 219.3 621.9 217.75 621.05 217.45 620.15 218.0 615.7 220.25 615.5 225.3 M610.95 214.3 L607.9 210.3 Q603.5 209.7 600.9 213.35 598.7 209.45 594.95 207.2 L591.5 207.3 Q584.8 210.15 586.25 217.05 M631.1 247.3 Q627.7 241.9 622.0 240.65 620.1 240.5 619.05 242.25 617.75 244.4 617.35 247.3 M648.5 242.7 Q646.0 236.3 639.85 237.75 L639.05 238.15 637.5 242.7 M608.25 239.05 Q604.55 237.3 603.75 232.8 L603.35 232.25 600.1 232.1 Q596.15 233.35 592.15 234.0 L590.15 234.15 579.85 239.05 Q576.7 234.0 571.3 231.6 569.5 230.95 568.15 232.15 564.65 235.2 565.1 239.9 M614.65 263.75 Q609.05 266.3 604.65 262.5 603.2 261.2 601.35 261.6 597.45 262.5 593.9 264.95 592.9 265.75 591.5 265.2 587.2 263.85 583.3 266.0 580.9 267.35 580.7 270.15 M583.45 259.2 L578.1 252.95 570.4 256.15 567.3 253.9 Q565.2 253.5 563.45 254.8 561.2 256.55 559.35 254.55 L556.55 251.1 Q553.2 250.95 550.3 252.9 547.5 254.7 545.9 257.35 540.7 250.25 533.9 255.6 530.9 258.1 532.15 261.9 M588.1 285.75 L585.45 282.5 578.0 285.75 Q574.25 280.25 568.1 283.35 566.4 284.3 566.25 286.3 566.1 287.85 566.1 289.45 M606.4 292.15 L605.45 282.1 M646.65 258.25 L646.65 250.0 M636.65 263.75 L635.7 254.65 M615.5 286.65 L615.5 275.7 M624.7 278.4 L625.6 271.1 M571.6 205.1 Q567.7 201.6 562.3 202.9 558.95 203.75 555.45 202.4 552.5 203.6 549.6 204.95 545.2 201.9 540.1 202.5 539.6 202.65 539.2 202.9 L537.7 206.95 M536.8 242.7 Q532.4 239.1 526.7 240.5 L526.1 240.65 519.35 233.5 511.1 242.7 505.6 234.5 Q502.25 238.0 502.9 242.7 M536.8 228.1 L531.85 223.45 522.0 223.5 520.25 219.85 Q513.3 223.85 512.0 230.8 M562.15 226.4 Q558.5 221.3 552.25 221.75 550.0 221.9 548.7 223.9 546.95 226.7 546.8 229.85 M508.4 218.0 Q503.6 213.5 497.7 217.5 L495.5 218.9 Q495.7 217.6 495.1 216.4 L494.25 215.05 Q493.35 214.0 491.9 213.35 L486.4 220.7 M490.1 244.55 L490.1 240.9 M529.45 254.65 L526.95 254.1 Q525.75 248.15 520.5 250.55 517.7 251.75 515.05 251.05 512.25 250.4 512.0 247.3 504.5 249.5 500.15 256.4 501.45 251.7 498.3 248.15 493.6 251.1 493.7 256.4 M499.2 271.1 L500.15 261.9 M525.75 295.85 Q523.3 289.85 517.75 290.55 516.55 290.3 515.7 291.45 514.65 292.65 513.85 294.0 M508.4 277.5 L510.25 266.5 M520.25 276.55 L522.1 269.3 M545.05 296.7 Q542.95 292.0 544.55 287.45 L545.05 286.65 M538.55 288.5 L538.55 279.35 M570.65 277.5 L564.25 271.1 556.9 278.4 Q556.1 275.45 554.4 272.65 L551.45 268.3 Q544.9 272.0 544.1 279.35 M530.3 283.05 L530.3 271.1 M548.65 321.45 L547.75 313.75 M550.5 315.05 Q547.85 309.7 542.15 308.0 L541.45 307.9 539.5 311.35 M522.1 305.9 Q520.7 302.55 521.45 299.45 521.7 298.5 522.1 297.7 M570.4 390.8 Q565.5 394.5 560.8 391.9 559.9 391.45 559.35 390.5 L558.7 389.3 Q552.7 395.1 545.35 392.65 543.5 392.25 542.1 390.95 L540.4 389.3 Q532.95 397.5 523.1 392.65 521.35 391.75 520.25 390.15 M568.8 307.75 Q566.15 303.9 567.3 299.6 L567.9 297.7 M640.25 348.95 Q634.15 352.95 627.5 350.8 624.95 349.9 623.5 347.7 620.4 350.4 616.5 351.1 613.6 350.8 612.7 348.0 606.9 352.9 598.95 351.75 596.5 351.3 594.4 349.85 M554.15 304.95 L555.1 294.9 M584.4 305.9 L584.4 296.7 M595.35 310.5 L597.2 295.85 M306.9 18.3 L303.2 16.9 298.65 20.15 M294.0 25.6 L286.3 21.85 285.75 24.7 M323.35 70.7 L288.55 71.45 288.4 70.3 275.7 71.5 282.0 67.85 284.1 64.15 288.0 65.05 288.15 59.5 Q288.25 55.35 287.5 51.45 286.65 47.05 290.4 45.75 L292.65 48.95 294.7 49.2 294.1 45.75 296.9 45.6 298.7 47.05 299.6 55.85 Q301.75 55.05 303.85 55.85 L306.15 56.4 Q309.85 57.35 312.5 55.2 314.7 56.3 317.05 56.15 L316.0 39.75 311.75 39.1 308.1 42.0 307.3 40.9 Q306.5 40.15 305.5 40.0 304.55 39.75 303.5 40.0 301.7 46.5 302.55 53.75 L302.65 53.7 303.2 53.1 M318.7 33.35 Q313.35 33.3 308.95 30.65 L308.7 34.8 319.7 34.8 Q319.75 33.5 318.7 33.35 M311.45 44.9 L311.45 48.5 M306.9 45.75 L306.9 49.45 M308.7 39.35 L308.7 34.8 M278.5 21.05 Q274.7 15.5 269.1 19.05 L267.45 20.15 263.05 17.45 260.15 20.15 M248.25 29.3 L249.1 35.7 M262.0 43.9 L259.2 41.2 255.6 45.75 252.8 43.05 251.9 48.5 M278.5 32.95 Q274.55 30.0 269.85 30.8 L268.25 31.2 Q267.35 29.3 265.3 29.45 L263.35 29.7 261.05 33.85 M277.5 40.25 L276.65 43.05 M252.8 26.55 L245.3 23.75 242.7 26.55 M262.0 52.15 L262.0 58.55 M246.4 55.85 L243.1 52.15 237.9 53.3 231.75 50.3 228.1 55.85 M256.5 55.85 L256.5 62.25 M253.75 81.5 L248.25 80.3 242.1 82.55 Q237.9 80.7 233.75 79.85 229.45 80.4 228.95 85.1 M252.8 98.0 Q253.2 96.25 252.5 94.25 251.7 92.25 250.1 91.6 248.4 90.9 246.9 91.85 245.35 92.8 244.55 95.2 M321.1 54.0 L320.0 54.1 319.1 55.7 317.05 56.15 M312.4 69.6 L311.3 65.35 308.55 66.9 308.95 68.0 Q309.6 69.35 308.25 70.25 L307.75 70.5 M316.95 63.2 L316.95 58.55 M305.05 63.2 L305.05 60.4 M293.1 58.55 L293.1 54.95 M291.3 70.5 L288.4 70.3 288.0 65.05 M299.6 55.85 L298.65 70.5 M272.1 120.0 L273.1 119.35 Q278.4 113.6 284.5 108.7 286.4 107.05 289.05 106.3 L288.55 97.05 290.4 96.9 302.7 95.7 307.75 109.9 M306.0 91.6 Q303.1 85.7 309.05 82.7 310.1 82.15 310.65 81.05 L311.3 78.9 Q308.65 75.9 311.45 73.3 M322.5 99.85 L324.65 99.5 Q326.65 96.55 323.85 94.4 L321.35 93.9 319.6 91.9 315.3 94.3 316.0 96.15 M270.25 47.6 L270.25 52.15 M218.9 24.7 L213.1 19.9 Q211.9 20.5 210.65 21.05 M210.65 37.5 Q206.95 34.55 204.25 38.1 L204.25 38.5 M229.9 44.9 L223.5 46.7 219.45 42.65 212.5 48.5 206.4 44.15 Q203.45 45.1 203.3 48.4 L203.35 50.3 M215.3 24.7 L215.3 30.25 M198.55 43.7 L196.95 44.9 194.8 41.75 189.6 45.75 189.2 43.6 Q186.25 40.4 182.3 42.4 L179.1 44.15 Q173.9 42.3 171.3 47.6 171.45 44.0 167.6 43.9 164.8 43.85 162.8 44.65 158.3 46.25 157.5 52.15 M201.5 36.65 Q201.7 33.85 200.0 31.75 198.25 29.6 195.6 29.45 192.95 29.2 190.95 31.05 188.95 32.9 188.7 35.7 M196.0 60.4 L193.1 54.1 187.5 57.85 Q183.1 53.45 178.5 58.25 176.0 60.8 174.95 64.1 M170.4 60.4 Q169.05 62.0 168.0 59.35 167.45 57.9 166.1 57.3 L162.1 59.9 160.0 60.15 156.7 58.0 148.4 59.7 Q146.55 60.1 145.7 58.55 143.75 63.1 139.2 63.7 L135.05 61.5 133.75 67.75 M185.05 78.7 Q183.35 74.95 179.7 74.65 L176.1 74.8 172.95 76.1 170.4 72.3 167.7 74.15 Q166.25 75.35 166.25 77.1 L163.9 72.3 162.8 73.3 Q160.15 75.7 159.1 79.35 L158.5 81.5 M207.9 86.95 L205.7 86.55 201.5 82.4 195.1 87.9 191.45 80.55 185.05 89.75 M240.9 69.6 L237.35 64.4 228.1 67.75 225.45 62.4 Q221.7 64.5 221.7 68.65 M209.75 62.25 Q208.5 59.6 205.6 58.4 L203.35 57.7 203.35 64.1 M218.0 77.85 Q214.95 73.5 210.5 76.0 209.6 76.3 208.9 76.9 L204.25 70.5 Q199.9 74.0 199.7 79.7 M242.7 100.7 Q237.35 102.65 232.7 99.9 229.45 97.9 226.3 99.3 L223.5 100.7 221.7 96.15 214.3 103.45 M237.2 125.45 Q236.4 120.15 231.45 121.5 L221.3 121.2 Q220.4 121.05 219.5 121.45 216.3 122.95 215.3 126.4 M234.5 145.6 L232.25 143.3 225.35 146.4 Q221.45 143.1 216.4 143.1 L214.3 147.45 M222.55 135.5 Q219.45 131.5 214.4 133.1 L213.85 133.2 Q209.85 129.7 205.1 130.1 202.9 130.65 202.0 132.4 L200.55 135.5 M248.95 130.4 L240.55 128.8 240.0 131.85 M207.9 108.95 L201.45 110.3 Q199.6 109.6 198.15 107.85 196.0 105.35 193.1 106.65 191.75 107.3 190.55 108.1 L188.55 104.5 180.0 107.1 Q175.75 103.35 171.1 107.05 L166.7 110.8 Q164.9 108.8 162.8 108.1 158.7 106.55 153.85 110.0 153.1 110.55 152.5 111.35 L152.95 115.35 M200.55 123.6 Q194.5 118.95 188.1 122.4 184.8 124.25 181.35 122.7 177.9 121.3 174.5 121.9 L170.4 127.3 M171.3 134.65 Q169.35 129.5 163.45 131.2 L162.8 131.3 160.4 131.05 158.1 129.9 149.3 135.5 146.8 131.05 Q140.0 129.6 137.35 136.5 M167.6 148.3 L162.1 147.3 161.2 143.75 Q154.5 145.85 150.25 151.1 144.65 146.65 139.5 151.2 137.9 152.55 137.35 154.8 M196.95 142.9 Q193.3 138.4 187.6 140.55 184.95 141.7 182.5 140.15 179.45 138.5 177.7 135.5 L174.95 142.9 M196.0 167.6 L195.1 160.25 M185.9 171.3 L184.1 163.05 M176.8 156.65 L173.6 155.2 165.75 159.35 163.75 156.9 162.8 156.95 Q159.9 157.2 158.3 160.5 L157.5 162.1 M174.95 176.7 L173.1 167.6 M167.6 178.55 L166.7 171.3 M233.6 164.9 L232.65 153.85 M218.9 170.3 L218.9 164.9 M207.05 159.35 L206.1 151.1 M216.15 186.8 Q216.15 185.3 215.7 184.25 215.1 183.2 214.3 183.2 M218.95 179.5 L213.2 177.9 209.75 182.25 M235.45 189.6 L235.45 184.1 M237.3 182.25 L232.65 179.5 231.75 182.25 M305.05 120.9 L304.1 112.8 Q301.75 110.4 298.7 110.4 297.5 110.5 296.55 110.95 294.0 115.1 295.9 120.0 M314.25 126.4 Q314.15 124.3 313.5 123.05 312.9 121.75 312.0 121.5 311.05 121.2 310.25 122.1 309.45 122.9 309.05 124.5 308.65 126.0 308.7 127.3 M320.65 117.2 Q318.95 115.3 320.15 113.2 L320.65 112.65 M322.9 105.45 L317.85 111.75 M313.05 111.05 L314.7 112.15 316.0 110.8 M303.2 100.7 L295.2 101.6 290.4 96.9 M295.9 109.9 L294.1 103.45 M289.45 106.25 L289.05 106.3 290.4 112.65 M284.9 120.9 L285.05 121.45 291.3 114.5 M291.3 122.7 L285.85 128.25 M305.05 121.75 L299.5 121.75 M285.05 121.45 L284.9 129.1 275.05 129.05 Q273.35 127.3 273.5 124.65 273.6 122.55 274.8 120.9 M272.1 108.95 L270.65 108.1 271.75 105.7 271.6 103.6 270.5 102.7 274.65 100.65 273.9 101.7 278.5 101.7 Q274.0 106.5 275.75 113.5 M285.2 119.75 L283.1 115.35 283.05 112.65 273.1 119.35 M249.1 110.8 L243.6 108.3 241.85 110.8 M297.7 163.9 L293.35 160.65 288.0 162.9 279.1 162.7 278.5 166.65 M248.25 189.6 L248.25 184.95 M250.1 181.35 Q248.9 177.75 245.3 176.55 L244.7 176.55 243.7 178.55 M275.7 186.8 Q272.5 182.8 267.45 183.9 263.5 184.55 261.05 187.75 260.8 186.1 259.5 185.35 257.6 184.4 255.9 185.35 L255.6 188.65 M285.75 174.0 Q282.8 171.5 279.45 172.25 277.7 172.8 277.5 174.95 L269.3 170.3 268.4 175.85 M299.5 175.85 L299.5 174.0 M285.75 194.15 L284.9 186.8 M291.3 192.3 L291.3 184.1 M252.8 152.95 L251.9 147.45 M286.7 108.95 L283.1 115.35 M321.85 101.45 L316.95 97.05 M243.7 150.15 L241.85 141.9 M132.55 17.45 L120.55 17.05 Q118.9 17.3 117.2 17.05 110.7 17.7 105.05 21.3 102.4 22.95 99.3 22.1 92.95 20.7 88.0 24.15 87.2 24.7 86.55 25.5 L86.15 26.1 Q84.8 28.4 85.45 30.9 L86.8 32.4 90.3 32.4 Q92.3 34.55 93.85 37.3 94.5 38.4 95.75 38.9 102.3 41.5 109.35 39.05 113.45 37.45 117.45 36.5 L123.3 35.2 Q129.3 29.9 132.4 22.9 133.2 21.1 132.95 19.2 L132.55 17.45 M154.8 38.5 L153.9 43.9 M157.5 35.7 L156.65 32.0 150.15 35.3 151.1 36.65 M79.75 67.75 Q81.9 71.05 86.3 69.45 L86.55 69.35 Q88.0 68.55 87.7 66.9 L86.55 65.6 Q83.5 62.7 78.8 65.05 M98.95 94.3 L103.1 93.75 102.25 91.5 Q98.4 89.75 96.15 93.05 L97.1 94.3 M142.25 77.6 Q139.5 73.2 135.3 75.6 131.85 77.75 127.75 78.55 125.9 79.2 125.3 81.3 L124.55 84.25 Q120.4 79.45 114.7 83.75 L113.7 84.9 114.5 87.9 M161.2 91.6 L157.5 86.1 154.4 88.95 Q150.15 89.1 145.9 87.45 144.5 86.95 142.95 87.9 141.45 88.7 140.25 90.1 L139.2 91.6 Q136.95 89.1 133.6 89.45 132.0 89.85 130.8 91.3 129.1 93.1 130.1 95.2 M43.9 37.3 Q39.75 38.55 35.7 40.15 L31.1 41.85 Q30.15 42.15 29.35 43.05 31.3 43.7 32.9 45.05 34.4 46.4 36.5 47.2 48.15 50.7 59.85 47.45 L60.15 46.5 Q63.45 44.7 67.35 43.75 L69.6 42.4 Q72.15 40.65 72.55 37.75 L70.65 36.3 Q61.7 38.15 53.85 33.7 L52.3 33.6 Q48.25 35.75 43.9 37.3 M62.3 46.7 L59.85 47.45 M20.15 62.25 L19.5 66.9 Q24.55 69.1 30.4 67.75 32.3 67.5 32.9 65.7 33.6 63.6 33.05 61.6 26.7 58.55 21.1 62.25 M58.65 112.65 L58.5 113.5 60.1 113.45 Q66.7 112.55 73.05 114.25 L75.7 115.2 Q78.95 114.5 80.65 117.2 75.1 122.3 67.85 122.15 58.9 121.9 58.5 113.5 M19.3 154.8 L20.15 154.8 Q30.7 152.25 39.2 158.15 L39.2 159.2 37.2 161.45 31.3 162.25 Q24.3 163.85 20.3 158.4 L20.15 154.8 M36.25 175.2 Q39.75 174.4 42.65 172.5 49.1 168.15 56.7 165.5 63.45 163.1 70.55 162.3 71.5 162.3 72.3 162.95 74.9 165.45 75.05 168.9 L75.1 171.3 69.05 172.9 Q67.3 176.95 62.4 177.85 56.25 179.1 50.3 180.9 L43.9 180.7 Q39.35 179.05 34.8 177.7 L36.25 175.2 M144.7 118.15 L137.35 110.8 135.6 112.65 Q133.75 114.65 133.1 117.3 L132.8 119.05 M126.4 107.1 L124.55 99.85 M127.35 134.65 L122.0 130.95 115.45 134.65 113.7 132.0 109.9 134.65 M136.5 146.55 L130.3 143.1 128.25 146.55 M132.8 126.4 L131.9 122.7 M129.1 124.55 L128.25 116.3 M101.7 98.0 Q103.35 100.0 102.25 101.85 L101.7 102.55 M115.45 142.9 L116.3 138.3 M108.1 156.65 L108.7 157.6 Q107.6 162.1 102.15 162.9 96.8 163.9 92.55 160.25 L101.7 153.7 109.05 155.7 M110.9 196.25 Q101.9 194.15 94.5 198.65 L95.2 200.95 Q97.3 202.55 99.85 201.85 L107.2 201.05 Q110.95 201.1 112.7 197.85 112.3 196.4 110.9 196.25 M140.7 171.45 L141.05 165.75 M129.1 162.1 L129.1 154.8 M135.6 164.9 L133.75 156.65 M159.35 184.95 L157.5 172.15 M148.4 174.95 L149.3 167.6 M120.9 105.3 L119.05 96.15 M156.65 228.95 Q159.3 232.4 162.8 234.3 166.7 236.4 171.6 236.5 178.5 236.65 182.8 231.75 L186.7 227.75 Q188.5 225.9 190.55 224.4 L165.85 222.1 Q164.25 222.15 162.8 222.7 161.05 223.35 159.5 224.65 L156.65 227.1 M109.05 210.65 Q107.5 210.65 106.5 208.8 105.35 206.9 105.35 204.25 M119.1 206.95 L111.75 203.3 M98.95 208.8 L98.95 204.25 M88.9 206.1 Q90.8 206.1 92.15 204.25 93.45 202.3 93.45 199.7 M133.6 292.0 Q136.65 291.45 138.0 290.0 M132.8 294.4 L132.8 289.85 Q129.9 291.3 130.4 287.2 M132.8 284.8 L132.8 285.6 132.8 289.85 M121.85 199.7 L116.3 198.7 M64.1 252.8 Q63.75 256.95 59.1 257.75 53.85 258.25 51.3 253.7 46.55 261.1 38.65 256.4 L36.65 254.55 34.8 251.85 Q31.2 255.7 26.4 257.75 22.8 259.35 19.2 258.25 M103.3 522.1 L113.5 516.55 Q115.35 515.5 116.3 513.5 118.55 509.05 123.1 508.25 129.3 507.85 135.6 508.25 L136.5 508.25 Q138.95 506.15 140.8 503.5 143.1 500.25 145.7 497.3 146.4 496.55 147.45 496.15 L148.0 496.1 Q150.7 491.7 154.55 488.1 156.15 486.4 158.5 485.7 164.0 483.75 169.5 483.6 174.4 482.95 174.8 478.25 L174.95 475.5 Q175.35 469.6 181.3 466.9 190.4 462.8 200.5 461.6 203.3 457.2 204.95 452.1 206.1 448.8 205.9 445.3 205.75 440.95 204.15 436.7 202.0 431.35 206.0 428.65 206.9 428.1 208.0 427.6 211.5 426.8 210.95 423.2 210.8 422.3 211.35 421.45 L215.45 415.75 Q216.0 415.05 216.0 414.0 215.85 406.5 213.35 399.7 212.8 398.0 211.35 396.8 L197.75 386.0 Q194.8 383.75 191.1 383.75 179.5 383.9 174.95 373.3 174.3 371.75 174.9 370.3 L175.05 369.35 Q170.9 367.75 166.65 365.45 156.9 359.9 145.3 359.2 135.45 358.55 125.6 358.8 122.15 358.9 118.8 357.85 113.1 356.1 107.35 353.5 105.05 352.55 102.7 353.05 95.05 354.65 91.6 348.0 88.5 341.9 83.45 337.6 L72.15 328.25 Q68.9 325.5 67.75 321.45 66.25 315.85 68.7 311.35 M56.8 319.7 L56.8 322.65 Q54.5 324.65 51.3 324.55 42.8 325.1 34.55 324.25 33.1 324.5 32.1 323.3 L31.05 321.7 Q38.8 313.05 50.4 313.9 55.05 314.55 57.6 318.15 L57.85 318.65 56.8 319.7 M77.85 377.35 Q77.45 381.7 73.45 383.2 66.25 385.5 63.2 378.25 60.4 384.3 54.25 384.55 47.45 383.75 44.9 377.35 38.7 384.5 29.7 387.45 L26.1 388.15 25.6 387.45 M91.35 310.0 L91.9 306.4 94.7 307.1 94.95 308.5 104.8 302.65 105.6 302.25 109.75 299.85 110.8 297.5 111.5 298.9 115.35 296.95 Q116.95 296.65 118.5 297.7 125.85 302.9 133.9 306.95 L133.9 304.65 135.1 305.2 135.35 306.55 135.6 306.65 Q138.4 304.1 142.3 305.3 144.5 305.85 142.9 306.4 M150.1 323.75 L150.1 318.95 146.9 319.5 147.7 324.95 M139.9 307.05 L135.6 306.65 M135.7 308.25 L133.9 306.95 133.9 308.25 M135.35 306.55 L135.1 307.05 M123.1 321.35 L123.1 311.85 M129.7 322.0 Q130.1 318.1 129.05 314.0 128.8 313.2 129.7 313.05 M134.5 310.65 L122.3 311.1 118.3 310.65 M135.7 310.65 L136.3 308.8 M139.3 322.55 L133.9 322.5 Q126.3 322.0 120.25 325.7 L119.85 326.1 120.15 328.55 M149.5 324.4 L148.9 324.4 M149.6 340.8 Q153.5 341.9 152.9 338.4 L152.8 337.6 M143.2 341.6 Q143.2 345.05 144.9 344.25 146.8 343.45 148.0 344.8 M148.0 350.4 Q149.45 349.85 149.1 347.2 148.8 344.0 148.8 340.8 L148.8 334.4 M140.5 326.15 L142.9 324.4 136.3 323.75 M143.5 323.2 L142.3 308.25 M137.5 307.6 L138.1 322.0 M133.9 322.5 L133.9 311.85 M112.95 304.0 L113.5 304.0 111.5 298.9 Q110.65 299.4 109.75 299.85 L109.45 303.6 110.1 303.45 111.75 304.0 M114.7 310.0 L116.15 308.95 Q117.2 306.5 115.35 304.65 L113.5 304.0 M117.1 305.85 L120.3 306.65 116.15 308.95 Q116.15 310.4 114.15 311.45 112.15 312.5 109.35 312.5 L110.55 317.2 112.3 313.6 M117.85 304.65 L118.95 301.05 Q116.95 301.3 115.85 303.1 L115.35 304.0 M109.45 303.6 L108.8 304.1 106.5 307.6 Q106.5 309.6 107.35 311.05 108.15 312.5 109.35 312.5 M105.75 306.4 L104.8 302.65 M105.6 302.25 L108.8 304.1 M108.7 313.05 L102.7 317.2 104.55 311.85 M106.5 307.6 L102.15 310.3 106.3 310.65 M117.1 311.2 L117.1 315.35 112.95 313.05 M114.0 320.1 L112.4 324.0 Q114.3 323.35 115.9 324.0 L117.1 324.4 Q116.5 322.1 115.35 319.9 114.8 318.95 114.0 318.9 L113.1 318.95 112.8 319.1 111.2 324.55 112.4 324.0 M117.1 318.4 L114.0 318.9 M113.1 318.95 L108.7 319.6 M94.3 310.0 L94.95 308.5 94.3 308.8 M87.1 320.15 L86.95 318.25 89.5 316.55 89.5 319.6 M100.95 311.85 L93.1 311.2 M96.7 328.0 L100.95 327.05 92.8 325.2 M98.55 330.4 L108.8 330.3 109.9 326.15 100.95 327.05 M111.2 324.55 L110.55 324.95 M105.75 324.95 L105.1 317.2 M120.7 322.55 L120.15 312.4 M102.15 325.6 L102.15 313.6 M99.1 323.2 L99.1 313.6 M92.55 323.2 L93.1 311.85 M94.95 324.95 L94.95 313.6 M135.7 325.6 L121.35 328.0 M288.5 245.45 Q284.95 250.95 278.9 249.75 276.7 249.35 275.7 247.3 270.15 253.75 263.2 248.95 261.85 247.9 261.05 246.4 257.3 251.75 249.9 251.35 L248.15 250.95 M325.1 294.0 Q321.6 297.3 317.45 295.6 L313.7 293.75 Q310.3 296.15 306.55 296.95 302.5 296.95 299.35 294.3 294.9 297.05 289.7 298.1 284.9 299.35 280.25 297.7 M239.05 273.85 Q235.7 279.5 229.35 278.3 227.75 278.25 226.4 277.35 223.1 275.1 220.7 272.0 216.65 277.75 209.5 275.85 203.75 274.4 202.4 268.3 198.4 274.7 190.4 275.1 L189.6 275.1 188.65 274.7 M216.8 345.6 L217.6 345.6 219.2 345.6 M171.2 318.4 Q168.8 322.5 172.8 322.7 L174.65 322.55 174.4 317.6 174.4 316.8 M176.0 324.0 Q179.2 324.25 178.5 320.8 L178.4 320.0 M175.2 328.0 L174.65 322.55 M171.2 337.6 Q186.5 341.2 198.0 352.4 L202.3 356.15 208.15 360.65 Q213.2 364.4 219.35 363.35 222.8 362.8 226.3 363.5 226.8 363.6 227.2 364.0 226.1 364.0 228.8 364.25 233.3 364.55 237.6 366.3 L240.0 367.1 Q251.5 370.4 260.0 380.0 M199.2 371.2 Q199.35 369.45 200.95 371.05 M256.8 352.0 L257.7 352.65 M275.2 392.0 L275.2 389.6 275.2 388.8 M271.2 392.0 L271.2 389.6 271.2 388.8 M266.4 400.8 Q266.9 393.6 265.75 387.2 L265.6 385.6 268.3 385.7 Q270.0 386.4 272.0 386.4 L284.0 386.4 Q282.25 391.7 284.25 396.7 284.4 397.1 284.7 397.5 284.55 391.3 284.7 384.8 L285.1 378.4 Q285.2 377.6 285.85 377.35 287.2 376.8 288.8 376.7 294.1 376.5 299.2 375.2 298.55 387.35 300.0 399.2 M296.8 354.4 L300.0 353.75 301.6 353.6 M294.4 383.2 Q294.4 381.6 294.65 380.1 294.8 379.2 295.2 378.4 M290.4 392.0 L290.4 388.8 290.4 387.2 M302.4 411.2 Q302.4 402.95 301.3 395.1 301.2 394.8 301.6 394.4 L302.4 394.5 Q307.5 395.45 312.9 393.05 315.1 392.1 315.35 393.6 316.9 402.25 317.6 411.2 M321.6 412.8 L326.65 402.55 Q327.05 401.75 326.3 400.0 L321.6 387.2 Q311.45 392.25 300.8 390.4 M262.9 202.4 L262.9 196.0 M269.3 200.55 L270.25 196.9 M307.2 403.2 Q308.7 401.5 308.1 397.6 L308.0 396.8 M312.0 401.6 L312.0 396.8 312.0 396.0 M276.0 416.0 L280.0 415.9 301.6 415.3 304.9 415.5 306.4 415.2 Q304.9 417.1 305.45 420.0 L305.6 422.4 M321.6 422.4 Q320.1 421.9 320.7 419.2 L320.8 418.4 M307.2 412.0 Q311.75 412.5 316.0 411.3 L316.8 411.2 M296.8 406.4 Q296.8 405.05 296.65 407.2 296.4 410.0 296.4 412.8 296.4 413.2 296.8 413.6 M284.7 397.5 L284.9 401.05 289.6 400.8 300.8 400.8 M290.4 408.0 Q290.8 410.8 290.8 413.6 290.8 414.0 291.2 414.4 M299.2 405.6 L299.2 412.0 299.2 412.8 M276.8 404.8 L276.9 405.5 284.0 405.7 Q292.65 406.8 300.0 404.0 M263.2 399.2 Q270.5 410.9 277.1 423.05 L278.1 424.95 278.8 426.15 279.45 426.95 279.9 427.3 280.9 427.7 Q287.5 429.05 294.4 428.55 298.4 428.25 301.6 429.6 M303.2 429.6 L303.2 432.0 303.2 432.8 Q298.9 431.2 294.3 432.4 L291.2 432.8 280.8 432.5 Q280.0 432.4 279.6 431.75 279.2 431.2 279.2 430.4 L279.45 426.95 M285.6 420.8 L286.3 424.0 286.4 424.8 M304.8 417.6 Q304.8 422.1 305.5 426.4 L305.6 427.2 M315.2 424.8 Q314.15 428.65 317.6 427.9 324.25 426.4 331.2 425.75 L335.1 425.3 Q337.1 424.95 336.5 423.3 334.8 418.55 335.2 413.6 M316.0 424.0 L316.0 423.2 315.2 423.2 M296.4 420.4 L296.0 421.6 M316.0 423.2 Q322.55 423.3 328.7 421.2 L328.25 419.2 Q328.0 416.4 326.7 415.6 322.1 412.7 315.6 413.6 316.0 418.3 316.0 423.2 M280.8 407.2 L281.6 414.4 M278.4 413.6 L277.9 412.7 Q277.1 409.1 276.9 405.5 273.1 405.75 272.0 402.4 M279.2 423.2 L278.9 418.5 Q278.5 416.1 280.0 415.9 M284.9 401.05 L282.5 401.35 Q276.65 402.25 271.2 400.0 M241.6 414.4 Q243.9 414.0 244.95 411.7 245.2 411.2 244.7 410.5 L244.0 409.6 M278.4 432.0 Q275.7 431.6 275.1 428.95 274.8 427.6 273.85 426.25 268.95 419.7 264.25 412.65 262.55 410.1 262.9 407.9 263.6 402.7 262.4 397.6 M247.2 455.2 L248.7 455.05 250.4 454.4 M265.6 486.3 Q258.55 482.9 254.7 476.25 L252.8 472.65 239.05 492.7 M292.8 452.8 L295.2 452.8 296.8 452.8 M315.2 492.8 Q301.5 488.7 299.5 474.5 L299.2 472.0 295.2 482.4 291.2 474.4 Q286.25 494.55 273.6 510.4 M241.6 420.8 Q242.0 420.0 241.85 419.35 L241.35 416.9 Q239.35 417.1 237.6 416.0 236.0 414.8 235.2 412.8 M240.8 409.6 L240.8 410.4 Q240.9 413.7 241.35 416.9 M188.65 410.3 L187.45 412.25 200.3 411.5 203.35 414.9 Q196.25 423.1 185.45 425.2 184.1 424.8 183.45 423.6 183.1 422.95 183.3 422.55 184.7 417.1 187.45 412.25 M160.25 439.6 L157.9 444.0 Q164.95 445.6 170.3 441.45 171.85 440.25 173.1 438.7 167.45 435.3 161.2 437.75 M234.5 503.75 Q230.15 500.4 228.3 494.25 L225.3 485.45 Q221.1 494.8 214.65 502.8 L210.65 507.45 M217.05 478.1 L211.6 468.95 200.55 481.75 M214.3 521.1 Q208.15 519.1 205.6 512.8 L204.25 509.3 193.05 522.1 M253.7 519.3 L240.9 512.0 229.9 522.1 M181.35 516.55 Q172.8 512.8 170.25 503.2 L169.45 500.1 152.0 517.5 M306.8 519.3 Q300.4 515.45 297.75 508.65 L296.7 505.6 281.1 522.1 M199.85 503.5 L190.5 492.7 179.5 510.15 M273.85 500.95 L264.7 488.15 247.3 508.3 M138.25 432.3 Q133.6 438.3 125.85 438.4 121.1 437.9 120.0 433.2 119.2 439.35 113.2 439.9 106.9 440.0 103.2 434.7 102.4 433.75 101.1 435.5 97.6 440.25 92.0 442.9 L90.15 443.05 86.95 442.4 M78.7 477.2 Q70.7 484.15 61.1 480.8 L59.7 480.0 58.55 478.1 Q56.1 482.65 50.95 482.7 50.1 482.25 49.35 481.6 L44.9 477.2 Q38.95 486.0 28.15 486.55 25.75 486.9 23.75 485.45 M575.05 441.3 L555.7 441.3 Q555.45 441.45 555.5 441.6 L556.0 442.65 556.0 444.4 553.45 447.9 Q554.55 450.8 557.75 450.7 L570.15 451.45 Q571.85 450.8 573.5 450.25 578.8 448.7 577.05 443.75 576.4 442.15 575.05 441.3 M606.3 486.3 Q598.3 483.35 594.25 476.55 593.45 475.1 593.1 473.5 L592.65 469.85 579.75 484.5 M630.15 488.15 Q620.95 485.75 618.65 476.55 L618.25 474.4 607.3 490.95 M456.0 444.8 Q457.2 442.65 460.15 440.9 463.6 438.8 467.6 439.85 469.6 440.4 471.05 442.55 471.75 437.2 477.45 437.5 479.6 437.6 481.35 440.15 L483.2 443.2 Q485.2 442.0 487.2 442.0 487.6 442.0 488.0 443.2 M466.4 465.6 L467.85 463.85 Q469.6 461.2 472.0 459.85 475.2 458.0 478.8 459.05 480.3 459.45 481.7 460.8 L487.3 453.35 488.65 456.0 488.8 456.25 Q490.7 455.6 492.8 455.6 495.2 455.6 497.7 457.5 498.8 458.4 500.0 458.4 502.0 458.4 504.0 457.6 M501.9 466.15 Q493.35 463.45 488.8 456.25 486.65 456.95 484.65 458.5 483.2 459.6 482.4 461.6 L481.7 460.8 475.35 468.95 M544.95 483.6 Q538.55 479.5 534.5 473.1 533.1 470.95 533.05 468.0 L519.35 486.3 M566.95 482.65 Q562.0 480.3 558.7 476.1 556.65 473.35 556.8 469.85 556.0 470.8 555.5 471.85 551.6 480.65 544.1 486.3 M576.1 502.8 Q567.5 499.1 563.45 490.65 L562.4 488.15 548.65 504.65 M546.8 512.0 Q538.55 507.1 535.1 497.5 L534.0 494.55 520.25 512.0 M522.1 521.1 Q516.8 516.55 510.5 514.65 509.3 514.25 508.1 514.65 503.6 516.3 500.95 520.0 L499.2 522.1 M496.4 508.3 Q489.9 507.6 486.0 501.85 L482.7 497.35 468.0 513.85 M639.3 509.3 L628.3 490.0 624.4 496.5 Q621.05 502.0 615.5 505.6 M628.3 522.1 Q625.6 519.05 624.1 515.2 623.2 512.95 623.1 510.4 618.15 517.7 610.7 522.1 M607.3 511.05 L601.05 505.7 Q598.7 503.5 597.6 500.55 L596.25 496.4 Q591.75 506.0 582.55 511.05 M576.1 522.1 L567.45 512.3 Q559.1 514.8 554.7 522.1 M517.7 501.7 L508.3 484.5 Q500.7 491.5 496.4 500.95 M446.4 416.0 L446.3 416.8 445.6 421.6 M436.0 432.8 Q436.25 427.9 440.55 426.7 443.2 426.0 446.0 427.85 446.8 428.4 447.2 429.6 L448.7 427.9 453.6 422.4 457.3 426.0 Q458.0 426.8 459.1 426.65 L462.0 426.8 Q463.2 427.2 464.0 428.8 L464.8 430.4 M466.4 432.0 Q467.9 430.3 469.85 431.05 471.2 431.6 472.1 433.6 L472.8 435.2 Q475.3 432.55 478.25 433.05 479.6 433.2 480.8 434.4 M409.6 404.0 Q410.8 401.2 413.2 400.15 416.4 398.8 419.3 400.1 420.0 400.4 420.0 402.4 L420.0 403.2 Q422.9 398.65 428.15 400.7 430.4 401.6 432.0 404.0 M408.0 419.2 Q407.5 414.15 412.4 412.9 416.0 412.0 419.75 413.35 420.4 413.6 420.8 414.4 422.4 412.0 426.0 410.5 L428.65 410.7 430.4 411.2 Q432.8 411.2 435.2 410.5 438.55 409.45 438.4 412.8 M380.0 441.6 Q379.6 440.4 379.5 439.2 379.2 436.0 379.35 432.7 376.5 428.25 381.5 425.2 384.8 423.2 387.3 424.8 389.2 426.0 389.2 429.6 389.2 430.4 388.8 431.2 395.7 423.7 405.45 424.3 406.8 424.4 407.7 426.55 L408.0 428.0 412.1 426.7 414.4 426.4 M406.4 451.2 L406.9 449.6 Q407.2 446.4 408.55 443.9 410.4 440.4 414.1 439.3 417.2 438.4 419.6 440.55 420.4 441.2 420.0 443.2 425.1 436.8 432.0 432.8 432.9 436.1 435.1 438.65 436.4 440.0 439.2 440.0 L443.2 440.0 M415.2 459.2 Q417.1 448.4 428.5 450.0 431.2 450.4 433.2 453.1 433.6 453.6 433.6 454.4 434.0 452.8 435.05 451.85 438.8 448.4 443.45 447.9 446.4 447.6 448.55 450.4 449.2 451.2 448.8 452.8 453.05 446.5 460.0 445.6 461.35 448.3 460.0 451.2 M409.6 467.2 Q412.5 471.2 412.0 476.8 L412.0 477.6 M421.6 470.4 Q419.3 474.55 422.5 478.3 L424.0 480.0 M433.6 472.8 Q431.7 476.8 433.75 480.7 L434.4 481.6 M440.0 474.4 Q442.5 476.25 442.4 480.8 L442.4 482.4 M436.9 500.95 Q429.75 497.05 428.15 489.05 427.35 485.2 424.95 481.75 L412.15 500.95 M446.4 481.6 L447.75 484.1 448.0 485.6 M468.95 496.4 Q463.5 493.5 460.95 487.9 L459.75 485.45 445.1 500.95 M443.2 476.8 Q444.3 472.3 448.0 470.0 449.2 469.2 450.4 470.4 452.8 472.8 455.35 474.25 456.4 474.8 458.4 473.6 461.2 472.0 463.6 472.5 465.6 472.8 467.1 475.3 L468.0 476.8 M369.6 408.8 Q369.05 401.7 376.3 400.55 377.6 400.4 378.9 402.55 L379.2 404.0 Q381.2 402.95 383.05 400.55 384.4 398.8 386.4 397.6 386.5 401.05 388.4 400.65 391.2 400.0 393.75 397.75 L396.0 396.0 Q398.25 398.3 398.95 401.2 399.2 402.0 400.8 402.4 M373.6 416.0 L373.6 426.4 373.6 427.2 M380.0 433.6 L379.35 432.7 M332.8 412.8 Q332.4 412.4 332.0 412.3 L330.5 412.15 331.05 413.7 Q331.6 416.0 331.6 418.4 331.6 420.0 330.7 420.4 L328.7 421.2 328.8 421.6 M327.2 411.2 Q328.8 411.85 330.5 412.15 M345.6 449.6 L345.1 442.4 343.2 442.4 Q342.4 442.4 342.25 442.1 340.8 439.6 339.2 438.4 M345.6 439.2 Q349.1 438.0 348.8 434.4 L348.8 433.6 M324.8 420.8 Q325.75 420.95 324.95 419.1 M344.0 430.4 L345.1 442.4 M334.5 494.3 L324.25 480.9 311.45 501.9 M333.6 500.8 Q347.2 488.65 354.55 471.85 L358.4 463.2 364.0 480.8 368.8 471.2 370.4 475.2 371.9 472.5 Q372.65 471.05 373.05 469.5 L374.4 463.2 Q379.9 476.65 388.4 488.55 390.3 491.3 392.9 493.1 395.75 495.3 399.2 495.2 M402.4 464.8 L402.4 465.6 402.4 473.6 M395.2 459.2 Q392.95 463.3 393.85 467.9 L394.4 469.6 M393.6 457.6 Q392.5 451.85 398.5 450.65 403.9 449.5 403.6 455.2 403.6 455.6 404.0 456.0 M388.0 448.0 Q386.55 453.05 387.35 458.4 L388.0 461.6 M373.6 453.6 Q373.6 452.8 373.75 452.1 374.0 451.2 374.4 450.4 M366.4 454.4 Q365.7 452.95 365.6 451.2 L365.6 449.6 M377.35 522.1 L370.95 504.65 357.2 522.1 M361.5 507.2 L349.7 496.15 341.45 508.1 M338.0 519.3 L328.15 504.0 312.3 522.1 M467.1 518.4 L453.75 506.3 441.45 518.4 M438.7 520.25 Q432.65 517.5 429.75 510.95 L428.65 508.3 Q419.2 513.45 412.8 522.1 M412.15 512.0 Q405.1 506.25 402.3 497.3 L401.2 493.7 384.7 512.0 M374.4 392.0 Q375.2 394.8 375.2 397.6 M325.5 232.8 L320.5 243.05" fill="none" stroke="#5a4d36" stroke-linecap="round" stroke-linejoin="round" stroke-width="1.6"/>
    <path d="M720.0 528.0 L0.0 528.0 0.0 0.0 720.0 0.0 720.0 528.0" fill="url(#gradient0)" fill-rule="evenodd" stroke="none"/>
  </g>
  <defs>
    <radialGradient cx="0" cy="0" gradientTransform="matrix(0.4662, 0.0, 0.0, 0.3615, 360.0, 264.7)" gradientUnits="userSpaceOnUse" id="gradient0" r="819.2" spreadMethod="pad">
      <stop offset="0.8352941176470589" stop-color="#000000" stop-opacity="0.0"/>
      <stop offset="1.0" stop-color="#000000" stop-opacity="0.36078432"/>
    </radialGradient>
  </defs>
</svg>
